<?xml version="1.0" encoding="utf-8"?>
<!-- Generator: Adobe Illustrator 24.3.0, SVG Export Plug-In . SVG Version: 6.00 Build 0)  -->
<svg version="1.1" id="Layer_1" xmlns="http://www.w3.org/2000/svg" xmlns:xlink="http://www.w3.org/1999/xlink" x="0px" y="0px"
	 viewBox="0 0 1920 1080" style="enable-background:new 0 0 1920 1080;" xml:space="preserve">
<style type="text/css">
	.st0{fill:#FFFFFF;}
	.st1{fill:#FFC828;}
	.st2{fill:#FFE9A9;}
	.st3{fill:#18386D;}
	.st4{fill:#CFD8E7;}
	.st5{fill:url(#XMLID_3_);}
	.st6{fill:#29C3EC;}
	.st7{fill:#5A9FC2;}
	.st8{fill:url(#XMLID_4_);}
	.st9{fill:url(#XMLID_20_);}
	.st10{fill:url(#XMLID_40_);}
	.st11{fill:url(#XMLID_41_);}
	.st12{fill:url(#XMLID_47_);}
	.st13{fill:#A61B19;}
	.st14{fill:#E35030;}
</style>
<g id="XMLID_214_">
	<path id="XMLID_18_" class="st0" d="M1241.9,1062.3H-525.1c-5.9,0-10.6-4.8-10.6-10.6V-7.1c0-5.9,4.8-10.6,10.6-10.6h1767.1
		c5.9,0,10.6,4.8,10.6,10.6v1058.7C1252.6,1057.6,1247.8,1062.3,1241.9,1062.3z"/>
	<path id="XMLID_198_" class="st0" d="M756.6,618.4c-0.9-4.7-4-8.5-8.1-10.2c-0.8-6.9-6.2-12.3-12.9-12.3c-1.1,0-2.2,0.2-3.3,0.5
		c-1.3-6.2-6.5-10.8-12.7-10.8c-1.6,0-3.1,0.3-4.5,0.9c-1.6-9.2-9.1-16.1-18.1-16.1c-9.8,0-17.9,8.3-18.4,18.8c0,0,0,0,0,0
		c-7.2,0-13,6.3-13,14c0,1.5,0.2,2.9,0.6,4.3c-0.2,0-0.4,0-0.6,0c-1.5,0-2.8,0.4-4,1c-0.7-7-6.2-12.4-12.9-12.4
		c-6.7,0-12.2,5.5-12.9,12.5c-1.5-0.7-3.2-1-4.9-1c-6.3,0-11.5,4.8-12.7,11.1L756.6,618.4L756.6,618.4z"/>
	<g id="XMLID_155_">
		<g id="XMLID_92_">
			<g id="XMLID_88_">
				<rect id="XMLID_71_" x="365" y="654.8" class="st1" width="107" height="6.2"/>
				<path id="XMLID_5_" class="st1" d="M574.2,682.6H134.4v-17.5c0-2.3,1.9-4.2,4.1-4.2h431.5c2.3,0,4.2,1.9,4.2,4.2V682.6z"/>
				<polygon id="XMLID_6_" class="st1" points="134.4,682.6 121,781.5 121,872 580.7,872 580.7,749.4 574.2,682.6 				"/>
				<rect id="XMLID_7_" x="134.4" y="676" class="st1" width="439.8" height="6.5"/>
				<path id="XMLID_8_" class="st1" d="M580.7,749.4l103,32.7c10.7,3.4,18.1,14,18.1,26V872h-121V749.4z"/>
				<path id="XMLID_24_" class="st2" d="M642.9,808.6c-29,0-52.5,25.2-52.5,56.4c0,2.3,0.2,4.7,0.4,6.9H695c0.3-2.3,0.4-4.6,0.4-6.9
					C695.4,833.9,671.9,808.6,642.9,808.6z"/>
				<path id="XMLID_16_" class="st3" d="M688,865.4c0-25-20.3-45.2-45.3-45.2s-45.3,20.2-45.3,45.2c0,2.2,0.2,4.4,0.5,6.5h89.6
					C687.8,869.8,688,867.6,688,865.4z"/>
				<path id="XMLID_14_" class="st3" d="M292,865.4c0-25-22-45.2-49.2-45.2s-49.2,20.2-49.2,45.2c0,2.2,0.2,4.4,0.5,6.5h97.4
					C291.8,869.8,292,867.6,292,865.4z"/>
				<g id="XMLID_15_">
					<ellipse id="XMLID_21_" class="st3" cx="642.9" cy="873.9" rx="38.8" ry="41.7"/>
					<path id="XMLID_19_" class="st4" d="M662,873.9c0-11.3-8.6-20.5-19.1-20.5s-19.1,9.2-19.1,20.5s8.6,20.5,19.1,20.5
						S662,885.3,662,873.9z"/>
					<path id="XMLID_17_" class="st3" d="M650.1,873.9c0-4.2-3.2-7.6-7.1-7.6s-7.1,3.4-7.1,7.6c0,4.2,3.2,7.6,7.1,7.6
						S650.1,878.1,650.1,873.9z"/>
				</g>
				<path id="XMLID_22_" class="st3" d="M704.3,873.1h-26.8v-14.9h26.8c0.7,0,1.3,0.6,1.3,1.3v12.3
					C705.7,872.5,705.1,873.1,704.3,873.1z"/>
				<path id="XMLID_26_" class="st2" d="M683.6,782.1l-103-32.7v11.9l96.9,29.4c0,0,24.1,10.9,24.1,33.2v-15.8
					C701.7,796.1,694.3,785.5,683.6,782.1z"/>
				
					<linearGradient id="XMLID_3_" gradientUnits="userSpaceOnUse" x1="580.68" y1="269.305" x2="590.89" y2="269.305" gradientTransform="matrix(1 0 0 -1 0 1080)">
					<stop  offset="0" style="stop-color:#FFAA28"/>
					<stop  offset="1" style="stop-color:#FFFFFF"/>
				</linearGradient>
				<polygon id="XMLID_27_" class="st5" points="580.7,749.4 580.7,872 590.9,872 590.9,752.7 				"/>
				<path id="XMLID_9_" class="st3" d="M580.7,873.1H119.1c-0.5,0-1-0.4-1-1v-6.7h462.6V873.1z"/>
				<g id="XMLID_10_">
					<ellipse id="XMLID_11_" class="st3" cx="242.8" cy="873.9" rx="38.8" ry="41.7"/>
					<path id="XMLID_12_" class="st4" d="M261.9,873.9c0-11.3-8.6-20.5-19.1-20.5s-19.1,9.2-19.1,20.5s8.6,20.5,19.1,20.5
						S261.9,885.3,261.9,873.9z"/>
					<path id="XMLID_13_" class="st3" d="M249.9,873.9c0-4.2-3.2-7.6-7.1-7.6s-7.1,3.4-7.1,7.6c0,4.2,3.2,7.6,7.1,7.6
						S249.9,878.1,249.9,873.9z"/>
				</g>
				<path id="XMLID_23_" class="st3" d="M574.5,685.3l-7.5,2.9c-1.8,0.7-2.9,2.5-2.9,4.5v50.2c0,3.6,3.5,5.9,6.5,4.2l9.8-1.2
					L574.5,685.3z"/>
				<path id="XMLID_29_" class="st6" d="M574.8,688.3l-7,2.3c-0.8,0.3-1.3,1.1-1.3,2v50.2c0,1.3,1,2.2,2,2.2c0.3,0,0.6-0.1,0.9-0.2
					l0.4-0.2l10.2-1.7L574.8,688.3z"/>
				<path id="XMLID_30_" class="st7" d="M578.4,725.7l-3.6-37.4l-1,0.3l-7.3,51.7v2.5c0,1.3,1,2.2,2,2.2c0.3,0,0.6-0.1,0.9-0.2
					l0.4-0.2l6.7-1.1L578.4,725.7z"/>
				
					<linearGradient id="XMLID_4_" gradientUnits="userSpaceOnUse" x1="519.095" y1="392.1581" x2="519.095" y2="258.4557" gradientTransform="matrix(1 0 0 -1 0 1080)">
					<stop  offset="0" style="stop-color:#FFAA28"/>
					<stop  offset="1" style="stop-color:#FFFFFF"/>
				</linearGradient>
				<rect id="XMLID_37_" x="477.9" y="686.9" class="st8" width="82.4" height="175.2"/>
				<g id="XMLID_25_">
					<path id="XMLID_28_" class="st3" d="M516.1,773.1h-31.1c-0.9,0-1.6-0.7-1.6-1.7v-76.3c0-0.9,0.7-1.7,1.6-1.7h31.1
						c0.9,0,1.7,0.7,1.7,1.7v76.3C517.8,772.4,517,773.1,516.1,773.1z"/>
					<path id="XMLID_31_" class="st6" d="M485.9,769.7V697c0-0.4,0.4-0.8,0.8-0.8h27.9c0.4,0,0.8,0.4,0.8,0.8v72.7
						c0,0.4-0.4,0.8-0.8,0.8h-27.9C486.2,770.5,485.9,770.1,485.9,769.7z"/>
					<path id="XMLID_32_" class="st3" d="M553.1,773.1h-31.1c-0.9,0-1.7-0.7-1.7-1.7v-76.3c0-0.9,0.7-1.7,1.7-1.7h31.1
						c0.9,0,1.7,0.7,1.7,1.7v76.3C554.8,772.4,554,773.1,553.1,773.1z"/>
					<path id="XMLID_33_" class="st6" d="M522.8,769.7V697c0-0.4,0.4-0.8,0.8-0.8h27.9c0.4,0,0.8,0.4,0.8,0.8v72.7
						c0,0.4-0.4,0.8-0.8,0.8h-27.9C523.2,770.5,522.8,770.1,522.8,769.7z"/>
					<path id="XMLID_36_" class="st3" d="M516.1,855.5h-31.1c-0.9,0-1.6-0.7-1.6-1.7v-76.3c0-0.9,0.7-1.7,1.6-1.7h31.1
						c0.9,0,1.7,0.7,1.7,1.7v76.3C517.8,854.8,517,855.5,516.1,855.5z"/>
					<path id="XMLID_35_" class="st6" d="M485.9,852.1v-72.7c0-0.4,0.4-0.8,0.8-0.8h27.9c0.4,0,0.8,0.4,0.8,0.8v72.7
						c0,0.4-0.4,0.8-0.8,0.8h-27.9C486.2,852.9,485.9,852.5,485.9,852.1z"/>
					<path id="XMLID_34_" class="st3" d="M553.1,855.5h-31.1c-0.9,0-1.7-0.7-1.7-1.7v-76.3c0-0.9,0.7-1.7,1.7-1.7h31.1
						c0.9,0,1.7,0.7,1.7,1.7v76.3C554.8,854.8,554,855.5,553.1,855.5z"/>
					<path id="XMLID_38_" class="st6" d="M522.8,852.1v-72.7c0-0.4,0.4-0.8,0.8-0.8h27.9c0.4,0,0.8,0.4,0.8,0.8v72.7
						c0,0.4-0.4,0.8-0.8,0.8h-27.9C523.2,852.9,522.8,852.5,522.8,852.1z"/>
					<path id="XMLID_46_" class="st6" d="M485.9,850.4c0,1.4,1,2.5,2.3,2.5H513c1.3,0,2.3-1.1,2.3-2.5V819h-29.5L485.9,850.4
						L485.9,850.4z M522.8,819v31.4c0,1.4,1,2.5,2.3,2.5H550c1.3,0,2.3-1.1,2.3-2.5V819H522.8z"/>
					<path id="XMLID_49_" class="st6" d="M522.8,822.6v3.7h29.5v-3.7H522.8z M485.9,826.3h29.5v-3.7h-29.5L485.9,826.3L485.9,826.3z
						"/>
					<path id="XMLID_39_" class="st6" d="M522.8,841.9v1.4h29.5v-1.4H522.8z M485.9,843.3h29.5v-1.4h-29.5L485.9,843.3L485.9,843.3z
						"/>
					<path id="XMLID_116_" class="st6" d="M525.2,770.5h4.4l-6.7-11.6v9.2C522.8,769.4,523.9,770.5,525.2,770.5z M513,696.2h-20.8
						l23.1,40.2v-37.7C515.3,697.3,514.3,696.2,513,696.2z M485.9,698.6v22.5l28.3,49.1c0.7-0.4,1.2-1.2,1.2-2.2v-22.2l-28.4-49.3
						C486.3,697,485.9,697.7,485.9,698.6z M525.2,778.5c-1.3,0-2.3,1.1-2.3,2.5v4.3l29.5,51.2V810l-18.1-31.5L525.2,778.5
						L525.2,778.5z M550,778.5h-10.3l12.7,21.9V781C552.3,779.7,551.3,778.5,550,778.5z M522.8,709.6v39.7l12.2,21.2h15
						c1.3,0,2.3-1.1,2.3-2.5v-7.2L522.8,709.6z"/>
				</g>
				<g id="XMLID_42_">
					<g id="XMLID_43_">
						<path id="XMLID_44_" class="st3" d="M466.5,754h-53.5c-1,0-1.9-0.8-1.9-1.9v-54.6c0-1,0.9-1.9,1.9-1.9h53.5
							c1,0,1.9,0.8,1.9,1.9v54.6C468.4,753.2,467.5,754,466.5,754z"/>
						<path id="XMLID_64_" class="st6" d="M414.7,749.5v-49.3c0-0.3,0.3-0.6,0.6-0.6h48.8c0.3,0,0.6,0.3,0.6,0.6v49.3
							c0,0.3-0.3,0.6-0.6,0.6h-48.8C415,750.1,414.7,749.8,414.7,749.5z"/>
					</g>
					<g id="XMLID_45_">
						<path id="XMLID_53_" class="st3" d="M399.3,754h-53.5c-1,0-1.9-0.8-1.9-1.9v-54.6c0-1,0.9-1.9,1.9-1.9h53.5
							c1,0,1.9,0.8,1.9,1.9v54.6C401.2,753.2,400.3,754,399.3,754z"/>
						<path id="XMLID_61_" class="st6" d="M347.5,749.5v-49.3c0-0.3,0.3-0.6,0.6-0.6h48.8c0.3,0,0.6,0.3,0.6,0.6v49.3
							c0,0.3-0.3,0.6-0.6,0.6h-48.8C347.8,750.1,347.5,749.8,347.5,749.5z"/>
					</g>
					<g id="XMLID_54_">
						<path id="XMLID_56_" class="st3" d="M332.1,754h-53.5c-1,0-1.9-0.8-1.9-1.9v-54.6c0-1,0.9-1.9,1.9-1.9h53.5
							c1,0,1.9,0.8,1.9,1.9v54.6C334,753.2,333.1,754,332.1,754z"/>
						<path id="XMLID_58_" class="st6" d="M280.3,749.5v-49.3c0-0.3,0.3-0.6,0.6-0.6h48.8c0.3,0,0.6,0.3,0.6,0.6v49.3
							c0,0.3-0.3,0.6-0.6,0.6h-48.8C280.5,750.1,280.3,749.8,280.3,749.5z"/>
					</g>
					<g id="XMLID_57_">
						<path id="XMLID_59_" class="st3" d="M264.9,754h-53.6c-1.1,0-1.9-0.8-1.9-1.9v-54.6c0-1,0.9-1.9,1.9-1.9h53.6
							c1,0,1.9,0.8,1.9,1.9v54.6C266.8,753.2,265.9,754,264.9,754z"/>
						<path id="XMLID_55_" class="st6" d="M213.1,749.5v-49.3c0-0.3,0.3-0.6,0.6-0.6h48.8c0.3,0,0.6,0.3,0.6,0.6v49.3
							c0,0.3-0.3,0.6-0.6,0.6h-48.8C213.3,750.1,213.1,749.8,213.1,749.5z"/>
					</g>
					<g id="XMLID_52_">
						<path id="XMLID_62_" class="st3" d="M197.6,754h-53.6c-1.1,0-1.9-0.8-1.9-1.9v-54.6c0-1,0.9-1.9,1.9-1.9h53.6
							c1.1,0,1.9,0.8,1.9,1.9v54.6C199.5,753.2,198.7,754,197.6,754z"/>
						<path id="XMLID_60_" class="st6" d="M145.9,749.5v-49.3c0-0.3,0.3-0.6,0.6-0.6h48.8c0.3,0,0.6,0.3,0.6,0.6v49.3
							c0,0.3-0.3,0.6-0.6,0.6h-48.8C146.1,750.1,145.9,749.8,145.9,749.5z"/>
						<path id="XMLID_89_" class="st6" d="M147.6,750.1h4.8c0-0.1,0-0.1,0-0.2v-50.2c0-0.1,0-0.1,0-0.2h-4.8c-1,0-1.8,0.8-1.8,1.9
							v46.7C145.9,749.2,146.6,750.1,147.6,750.1z"/>
					</g>
					<path id="XMLID_120_" class="st6" d="M194.1,699.5h-11.9l13.7,23.8v-21.9C195.9,700.4,195.1,699.5,194.1,699.5z M225.8,699.5
						h-10.9c-1,0-1.8,0.8-1.8,1.9v15.8l19,32.9h22.9L225.8,699.5z M213.1,748.2c0,1,0.8,1.9,1.8,1.9h11.7l-13.5-23.4V748.2z"/>
					<path id="XMLID_117_" class="st6" d="M328.5,699.5h-6.3l8,14v-12.1C330.3,700.4,329.5,699.5,328.5,699.5z M301.5,699.5
						l28.6,49.5c0.1-0.3,0.2-0.6,0.2-0.9V723l-13.5-23.5H301.5z M347.5,703.7v39.7l3.9,6.7h22.9L347.5,703.7z"/>
				</g>
				<path id="XMLID_63_" class="st3" d="M120.5,770.5H466c1.3,0,2.4-1.1,2.4-2.5l0,0c0-1.4-1.1-2.5-2.4-2.5H120.5
					c-1.3,0-2.4,1.1-2.4,2.5l0,0C118.1,769.3,119.2,770.5,120.5,770.5z"/>
				<path id="XMLID_65_" class="st3" d="M128.8,802.5H466c1.3,0,2.4-1.1,2.4-2.5l0,0c0-1.4-1.1-2.5-2.4-2.5H128.8
					c-1.3,0-2.4,1.1-2.4,2.5l0,0C126.4,801.4,127.5,802.5,128.8,802.5z"/>
				<path id="XMLID_66_" class="st3" d="M137.2,838.5h49.9c1.3,0,2.4-1.1,2.4-2.5l0,0c0-1.4-1.1-2.5-2.4-2.5h-49.9
					c-1.3,0-2.4,1.1-2.4,2.5l0,0C134.8,837.4,135.9,838.5,137.2,838.5z"/>
				<path id="XMLID_67_" class="st3" d="M294.4,838.5h171c1.3,0,2.4-1.1,2.4-2.5l0,0c0-1.4-1.1-2.5-2.4-2.5h-171
					c-1.3,0-2.4,1.1-2.4,2.5l0,0C292,837.4,293.1,838.5,294.4,838.5z"/>
				
					<linearGradient id="XMLID_20_" gradientUnits="userSpaceOnUse" x1="354.23" y1="392.9225" x2="354.23" y2="397.4009" gradientTransform="matrix(1 0 0 -1 0 1080)">
					<stop  offset="0" style="stop-color:#FFFFFF"/>
					<stop  offset="1" style="stop-color:#FFAA28"/>
				</linearGradient>
				<polygon id="XMLID_70_" class="st9" points="574.6,686.9 574.2,682.6 134.4,682.6 133.8,686.9 				"/>
				<path id="XMLID_68_" class="st3" d="M134.8,873.1h-15.7c-0.5,0-1-0.4-1-1v-15.6c0-0.5,0.4-1,1-1h15.7V873.1z"/>
				<rect id="XMLID_69_" x="179.6" y="654.8" class="st1" width="107" height="6.2"/>
				
					<linearGradient id="XMLID_40_" gradientUnits="userSpaceOnUse" x1="233.085" y1="419.02" x2="233.085" y2="422.13" gradientTransform="matrix(1 0 0 -1 0 1080)">
					<stop  offset="0" style="stop-color:#FFAA28"/>
					<stop  offset="1" style="stop-color:#FFFFFF"/>
				</linearGradient>
				<rect id="XMLID_72_" x="179.6" y="657.9" class="st10" width="107" height="3.1"/>
				
					<linearGradient id="XMLID_41_" gradientUnits="userSpaceOnUse" x1="418.515" y1="419.02" x2="418.515" y2="422.13" gradientTransform="matrix(1 0 0 -1 0 1080)">
					<stop  offset="0" style="stop-color:#FFAA28"/>
					<stop  offset="1" style="stop-color:#FFFFFF"/>
				</linearGradient>
				<rect id="XMLID_75_" x="365" y="657.9" class="st11" width="107" height="3.1"/>
				<path id="XMLID_74_" class="st1" d="M541.2,654.2l-25.8,6.8h32.5v-1.2C547.8,656.1,544.6,653.3,541.2,654.2z"/>
				
					<linearGradient id="XMLID_47_" gradientUnits="userSpaceOnUse" x1="531.585" y1="419.02" x2="531.585" y2="422.13" gradientTransform="matrix(1 0 0 -1 0 1080)">
					<stop  offset="0" style="stop-color:#FFAA28"/>
					<stop  offset="1" style="stop-color:#FFFFFF"/>
				</linearGradient>
				<path id="XMLID_81_" class="st12" d="M547.5,657.9h-20.3l-11.9,3.1h32.5v-1.2C547.8,659.1,547.7,658.5,547.5,657.9z"/>
				<g id="XMLID_76_">
					<path id="XMLID_77_" class="st13" d="M560.6,672.7H549c-1.5,0-2.7-1.3-2.7-3l0,0c0-1.6,1.2-3,2.7-3h11.6c1.5,0,2.7,1.3,2.7,3
						l0,0C563.4,671.3,562.2,672.7,560.6,672.7z"/>
					<path id="XMLID_79_" class="st14" d="M560.2,672.7h-10.8c-0.5,0-0.8-0.4-0.8-0.8v-4.3c0-0.5,0.4-0.8,0.8-0.8h10.8
						c0.5,0,0.8,0.4,0.8,0.8v4.3C561,672.3,560.7,672.7,560.2,672.7z"/>
				</g>
				<g id="XMLID_83_">
					<path id="XMLID_87_" class="st13" d="M429,672.7h-11.6c-1.5,0-2.7-1.3-2.7-3l0,0c0-1.6,1.2-3,2.7-3H429c1.5,0,2.7,1.3,2.7,3
						l0,0C431.8,671.3,430.5,672.7,429,672.7z"/>
					<path id="XMLID_84_" class="st14" d="M428.6,672.7h-10.8c-0.5,0-0.8-0.4-0.8-0.8v-4.3c0-0.5,0.4-0.8,0.8-0.8h10.8
						c0.5,0,0.8,0.4,0.8,0.8v4.3C429.4,672.3,429.1,672.7,428.6,672.7z"/>
				</g>
				<g id="XMLID_94_">
					<path id="XMLID_98_" class="st13" d="M297.4,672.7h-11.6c-1.5,0-2.7-1.3-2.7-3l0,0c0-1.6,1.2-3,2.7-3h11.6c1.5,0,2.7,1.3,2.7,3
						l0,0C300.2,671.3,299,672.7,297.4,672.7z"/>
					<path id="XMLID_95_" class="st14" d="M297,672.7h-10.8c-0.5,0-0.8-0.4-0.8-0.8v-4.3c0-0.5,0.4-0.8,0.8-0.8H297
						c0.5,0,0.8,0.4,0.8,0.8v4.3C297.8,672.3,297.5,672.7,297,672.7z"/>
				</g>
				<g id="XMLID_101_">
					<path id="XMLID_105_" class="st13" d="M165.8,672.7h-11.6c-1.5,0-2.7-1.3-2.7-3l0,0c0-1.6,1.2-3,2.7-3h11.6
						c1.5,0,2.7,1.3,2.7,3l0,0C168.6,671.3,167.3,672.7,165.8,672.7z"/>
					<path id="XMLID_102_" class="st14" d="M165.4,672.7h-10.8c-0.4,0-0.8-0.4-0.8-0.8v-4.3c0-0.5,0.4-0.8,0.8-0.8h10.8
						c0.4,0,0.8,0.4,0.8,0.8v4.3C166.2,672.3,165.9,672.7,165.4,672.7z"/>
				</g>
				<path id="XMLID_82_" class="st3" d="M693.2,838.8h8.5v-28.1h-8.5c-0.9,0-1.6,0.7-1.6,1.6v24.9
					C691.6,838.1,692.3,838.8,693.2,838.8z"/>
				<path id="XMLID_85_" class="st14" d="M695.3,836.6h6.4v-23.8h-6.4c-0.7,0-1.3,0.6-1.3,1.3v21.2C694,836,694.6,836.6,695.3,836.6
					z"/>
				<path id="XMLID_90_" class="st14" d="M694,824.7v7.8c0,2.2,1.7,4.1,3.8,4.1h3.9v-11.9L694,824.7L694,824.7z"/>
				<rect id="XMLID_91_" x="694" y="824.7" class="st14" width="7.7" height="3.9"/>
				<path id="XMLID_86_" class="st3" d="M566.1,880.9H309c-2.4,0-4.8-1-6.5-2.8l-5-5h273.1v3C570.6,878.8,568.6,880.9,566.1,880.9z"
					/>
			</g>
			<g id="XMLID_93_">
				<path id="XMLID_107_" class="st3" d="M271.9,779.6v1.9c0,2.4-1.1,3.7-3.2,3.7h-1v5.6h-2.2v-14.8h3.2
					C270.9,775.9,271.9,777.2,271.9,779.6z M267.7,778v5h1c0.7,0,1.1-0.3,1.1-1.4v-2.2c0-1.1-0.4-1.4-1.1-1.4H267.7z"/>
				<path id="XMLID_111_" class="st3" d="M275.1,775.9v11.4c0,1.1,0.4,1.4,1.1,1.4s1.1-0.4,1.1-1.4v-11.4h2v11.3
					c0,2.4-1.1,3.7-3.2,3.7c-2.1,0-3.2-1.3-3.2-3.7v-11.3H275.1z"/>
				<path id="XMLID_113_" class="st3" d="M287.3,779.3v0.5c0,1.5-0.4,2.5-1.4,3c1.2,0.5,1.6,1.6,1.6,3.2v1.2c0,2.3-1.1,3.5-3.3,3.5
					h-3.4v-14.8h3.3C286.4,775.9,287.3,777,287.3,779.3z M283,778v3.9h0.9c0.8,0,1.3-0.4,1.3-1.6v-0.8c0-1.1-0.3-1.5-1.1-1.5
					L283,778L283,778z M283,784v4.5h1.2c0.7,0,1.1-0.4,1.1-1.5v-1.3c0-1.4-0.4-1.8-1.4-1.8L283,784L283,784z"/>
				<path id="XMLID_132_" class="st3" d="M288.9,775.9h2.2v12.7h3.6v2.1h-5.7L288.9,775.9L288.9,775.9z"/>
				<path id="XMLID_134_" class="st3" d="M295.5,775.9h2.2v14.8h-2.2V775.9z"/>
				<path id="XMLID_136_" class="st3" d="M305.5,785.2v2c0,2.4-1.1,3.7-3.2,3.7c-2.1,0-3.2-1.3-3.2-3.7v-7.7c0-2.4,1.1-3.7,3.2-3.7
					c2.1,0,3.2,1.3,3.2,3.7v1.4h-2v-1.6c0-1.1-0.4-1.5-1.1-1.5s-1.1,0.4-1.1,1.5v8c0,1.1,0.4,1.4,1.1,1.4s1.1-0.4,1.1-1.4v-2.1
					L305.5,785.2L305.5,785.2z"/>
				<path id="XMLID_138_" class="st3" d="M312.8,775.7c2.1,0,3.2,1.3,3.2,3.7v0.5h-2v-0.6c0-1.1-0.4-1.5-1.1-1.5
					c-0.7,0-1.1,0.4-1.1,1.5c0,3,4.2,3.6,4.2,7.8c0,2.4-1.1,3.7-3.2,3.7s-3.2-1.3-3.2-3.7v-0.9h2v1.1c0,1.1,0.4,1.4,1.1,1.4
					s1.1-0.4,1.1-1.4c0-3-4.2-3.6-4.2-7.8C309.6,777.1,310.7,775.7,312.8,775.7z"/>
				<path id="XMLID_140_" class="st3" d="M323.5,785.2v2c0,2.4-1.1,3.7-3.2,3.7c-2.1,0-3.2-1.3-3.2-3.7v-7.7c0-2.4,1.1-3.7,3.2-3.7
					c2.1,0,3.2,1.3,3.2,3.7v1.4h-2v-1.6c0-1.1-0.4-1.5-1.1-1.5s-1.1,0.4-1.1,1.5v8c0,1.1,0.4,1.4,1.1,1.4s1.1-0.4,1.1-1.4v-2.1
					L323.5,785.2L323.5,785.2z"/>
				<path id="XMLID_142_" class="st3" d="M327,790.7h-2.2v-14.8h2.2v6.3h2.5v-6.3h2.2v14.8h-2.2v-6.3H327V790.7z"/>
				<path id="XMLID_144_" class="st3" d="M333.1,779.5c0-2.4,1.2-3.7,3.3-3.7s3.3,1.3,3.3,3.7v7.7c0,2.4-1.2,3.7-3.3,3.7
					c-2.1,0-3.3-1.3-3.3-3.7V779.5z M335.2,787.3c0,1.1,0.4,1.5,1.1,1.5s1.1-0.4,1.1-1.5v-8c0-1.1-0.4-1.5-1.1-1.5s-1.1,0.4-1.1,1.5
					V787.3z"/>
				<path id="XMLID_147_" class="st3" d="M340.9,779.5c0-2.4,1.2-3.7,3.3-3.7s3.3,1.3,3.3,3.7v7.7c0,2.4-1.2,3.7-3.3,3.7
					c-2.1,0-3.3-1.3-3.3-3.7V779.5z M343,787.3c0,1.1,0.4,1.5,1.1,1.5s1.1-0.4,1.1-1.5v-8c0-1.1-0.4-1.5-1.1-1.5s-1.1,0.4-1.1,1.5
					V787.3z"/>
				<path id="XMLID_150_" class="st3" d="M348.8,775.9h2.2v12.7h3.6v2.1h-5.7V775.9z"/>
				<path id="XMLID_152_" class="st3" d="M358.4,775.7c2.1,0,3.2,1.3,3.2,3.7v0.5h-2v-0.6c0-1.1-0.4-1.5-1.1-1.5
					c-0.7,0-1.1,0.4-1.1,1.5c0,3,4.2,3.6,4.2,7.8c0,2.4-1.1,3.7-3.2,3.7s-3.2-1.3-3.2-3.7v-0.9h2v1.1c0,1.1,0.4,1.4,1.1,1.4
					s1.1-0.4,1.1-1.4c0-3-4.2-3.6-4.2-7.8C355.2,777.1,356.3,775.7,358.4,775.7z"/>
			</g>
		</g>
		<path id="XMLID_154_" class="st4" d="M725.1,921.3H98.6c-1.4,0-2.6-1.3-2.6-2.8l0,0c0-1.6,1.2-2.8,2.6-2.8h626.5
			c1.5,0,2.6,1.3,2.6,2.8l0,0C727.8,920,726.6,921.3,725.1,921.3z"/>
	</g>
	<path id="XMLID_197_" class="st0" d="M249.1,503.6c-1.3-6.8-5.9-12.4-11.8-14.8c-1.1-10.1-9.1-17.9-18.7-17.9
		c-1.7,0-3.2,0.2-4.8,0.7c-1.9-9-9.4-15.6-18.4-15.6c-2.3,0-4.4,0.5-6.5,1.2c-2.3-13.3-13.2-23.4-26.2-23.4
		c-14.3,0-25.9,12-26.6,27.2c0,0-0.1,0-0.1,0c-10.4,0-18.9,9.1-18.9,20.3c0,2.2,0.3,4.2,0.9,6.2c-0.3,0-0.6,0-0.9,0
		c-2.1,0-4.1,0.5-5.8,1.5c-1-10.1-9-18-18.8-18c-9.7,0-17.7,7.9-18.8,18.1c-2.2-1-4.6-1.5-7.2-1.5c-9.1,0-16.7,6.9-18.5,16.1
		L249.1,503.6L249.1,503.6z"/>
	<path id="XMLID_204_" class="st0" d="M482.2,135.1c-1-5-4.3-9-8.6-10.8c-0.8-7.3-6.6-13-13.7-13c-1.2,0-2.4,0.2-3.5,0.5
		c-1.4-6.5-6.9-11.4-13.4-11.4c-1.7,0-3.2,0.3-4.7,0.9c-1.7-9.7-9.6-17-19.1-17c-10.4,0-18.9,8.8-19.4,19.8c0,0,0,0,0,0
		c-7.6,0-13.8,6.6-13.8,14.8c0,1.6,0.2,3.1,0.7,4.5c-0.2,0-0.4,0-0.7,0c-1.5,0-3,0.4-4.3,1.1c-0.8-7.4-6.6-13.2-13.7-13.2
		s-12.9,5.8-13.7,13.2c-1.6-0.7-3.4-1.1-5.2-1.1c-6.6,0-12.2,5-13.5,11.7L482.2,135.1L482.2,135.1z"/>
	<path id="XMLID_196_" class="st0" d="M718.3,357.5c-1.7-8.4-7.2-15.3-14.6-18.3c-1.4-12.5-11.2-22.2-23.2-22.2c-2,0-4,0.3-5.9,0.9
		c-2.4-11.1-11.7-19.4-22.8-19.4c-2.8,0-5.5,0.6-8,1.5c-2.9-16.5-16.3-29-32.5-29c-17.7,0-32.1,14.9-33,33.7c0,0-0.1,0-0.1,0
		c-12.9,0-23.4,11.3-23.4,25.1c0,2.7,0.4,5.3,1.1,7.7c-0.4,0-0.8-0.1-1.1-0.1c-2.6,0-5.1,0.7-7.2,1.9c-1.3-12.6-11.2-22.4-23.3-22.4
		c-12.1,0-22,9.8-23.3,22.4c-2.7-1.2-5.7-1.9-8.9-1.9c-11.3,0-20.7,8.6-22.9,20L718.3,357.5L718.3,357.5z"/>
	<path id="XMLID_206_" class="st0" d="M-6.3,238.5h205.1c-1.7-8.4-7.2-15.3-14.6-18.3c-1.4-12.5-11.2-22.2-23.2-22.2
		c-2.1,0-4,0.3-5.9,0.9c-2.4-11.1-11.7-19.4-22.8-19.4c-2.8,0-5.5,0.6-8,1.5c-2.9-16.5-16.3-29-32.5-29c-17.7,0-32.1,14.9-33,33.7
		c0,0-0.1,0-0.1,0c-12.9,0-23.4,11.3-23.4,25.1c0,2.7,0.4,5.3,1.1,7.7c-0.4,0-0.8-0.1-1.1-0.1c-2.6,0-5.1,0.7-7.2,1.9
		C26.5,207.8,16.6,198,4.6,198c-3.9,0-7.7,1.1-10.9,2.9C-6.3,200.9-6.3,238.5-6.3,238.5z"/>
	<path class="st0" d="M-133,26.2"/>
</g>
</svg>
