<?xml version="1.0" encoding="utf-8"?>
<!-- Generator: Adobe Illustrator 24.3.0, SVG Export Plug-In . SVG Version: 6.00 Build 0)  -->
<svg version="1.1" id="Layer_1" xmlns="http://www.w3.org/2000/svg" xmlns:xlink="http://www.w3.org/1999/xlink" x="0px" y="0px"
	 viewBox="0 0 1920 1080" style="enable-background:new 0 0 1920 1080;" xml:space="preserve">
<style type="text/css">
	.st0{fill:#FFFFFF;}
	.st1{fill:#CFD8E7;}
	.st2{opacity:0.3;fill:#FFFFFF;enable-background:new    ;}
	.st3{fill:#FFC828;}
	.st4{opacity:0.5;fill:#CFD8E7;enable-background:new    ;}
	.st5{fill:#29C3EC;}
	.st6{fill:#18386D;}
</style>
<g id="XMLID_214_">
	<path id="XMLID_18_" class="st0" d="M1771.4,1088H4.3c-5.9,0-10.6-4.8-10.6-10.6V18.6C-6.3,12.8-1.6,8,4.3,8h1767.1
		c5.9,0,10.6,4.8,10.6,10.6v1058.7C1782,1083.2,1777.2,1088,1771.4,1088z"/>
	<path id="XMLID_73_" class="st1" d="M275,8c0,0,300.2,44.5,412.1,393.3s129.1,409.5,369.8,421.2s282.7,176.6,277,265.5H24.1
		c-16.8,0-30.5-14.7-30.5-32.8V40.8C-6.3,22.7,7.3,8,24.1,8H275z"/>
	<path id="XMLID_198_" class="st0" d="M756.6,626.4c-0.9-4.7-4-8.5-8.1-10.2c-0.8-6.9-6.2-12.3-12.9-12.3c-1.1,0-2.2,0.2-3.3,0.5
		c-1.3-6.2-6.5-10.8-12.7-10.8c-1.6,0-3.1,0.3-4.5,0.9c-1.6-9.2-9.1-16.1-18.1-16.1c-9.8,0-17.9,8.3-18.4,18.8c0,0,0,0,0,0
		c-7.2,0-13,6.3-13,14c0,1.5,0.2,2.9,0.6,4.3c-0.2,0-0.4,0-0.6,0c-1.5,0-2.8,0.4-4,1c-0.7-7-6.2-12.4-12.9-12.4
		c-6.7,0-12.2,5.5-12.9,12.5c-1.5-0.7-3.2-1-4.9-1c-6.3,0-11.5,4.8-12.7,11.1L756.6,626.4L756.6,626.4z"/>
	<g id="XMLID_201_">
		<ellipse id="XMLID_200_" class="st2" cx="230" cy="436.8" rx="101.1" ry="108.5"/>
		<ellipse id="XMLID_199_" class="st2" cx="230" cy="436.8" rx="81" ry="87"/>
		<ellipse id="XMLID_78_" class="st3" cx="230" cy="436.8" rx="55.7" ry="59.9"/>
	</g>
	<path id="XMLID_211_" class="st4" d="M695.7,840.3L640.2,613c-1.1-4.3-7.8-4.3-8.8,0l-17.1,70c-8.4-23.4-20.4-38-33.6-38
		c-10.5,0-20.2,9.2-28,24.7c-9.3-34-24.6-56.2-41.8-56.2c-19.4,0-36.3,28.1-45.1,69.5l-26.2-107.4c-1.2-4.8-8.7-4.8-9.9,0
		l-31.2,127.6l-21.1-86.6c-1-4.3-7.7-4.3-8.8,0l-18.7,76.7c-8.4-29.4-21.9-48.4-37-48.4c-14.5,0-27.4,17.3-35.8,44.4l-17.8-72.8
		c-1-4.3-7.7-4.3-8.8,0l-18.6,76c-7.5-52.6-27-90.1-49.8-90.1c-21.1,0-39.2,31.9-47.8,78.1l-26.6-109c-1.2-4.9-8.8-4.9-10,0
		L34.8,829.3c-0.7,2.9,1.7,5.7,5,5.7h57.8v84c0,2.6,2.3,4.7,5.1,4.7s5.1-2.1,5.1-4.7v-84h35.4c9.1,25.6,21.9,42.2,36.2,44v42.1
		c0,1.4,1.2,2.5,2.7,2.5c1.5,0,2.7-1.1,2.7-2.5V879c12.1-1.6,23.1-13.6,31.7-32.7h33.9v73.2c0,2.2,2,4.1,4.5,4.1s4.5-1.8,4.5-4.1
		v-73.2h19.6c7.9,22.4,19.1,37,31.6,38.6v36.5c0,1.2,1,2.2,2.4,2.2s2.4-1,2.4-2.2v-36.5c12.5-1.6,23.6-16.2,31.6-38.6h21.7v73.2
		c0,2.2,2,4.1,4.5,4.1s4.5-1.8,4.5-4.1v-73.2h50.4c0.6,0,1.2-0.1,1.7-0.3v73c0,2.6,2.3,4.6,5.1,4.6s5-2.1,5-4.6v-83h32.9
		c8.9,25.9,21.5,42.7,35.7,44.6v40.7c0,1.3,1.2,2.4,2.6,2.4s2.6-1.1,2.6-2.4v-40.7c12.6-1.7,24-15.1,32.6-36.2
		c8,23.6,19.4,39,32.3,40.6v36.5c0,1.2,1,2.2,2.3,2.2s2.3-1,2.3-2.2v-36.5c12.7-1.7,23.9-16.6,31.9-39.5h16.4v74.1
		c0,2.3,2,4.1,4.5,4.1s4.5-1.8,4.5-4.1v-74.1h51C694.2,845.4,696.4,843,695.7,840.3z"/>
	<g id="XMLID_80_">
		<ellipse id="XMLID_177_" class="st5" cx="151.5" cy="732.4" rx="48.8" ry="149"/>
		<path id="XMLID_176_" class="st6" d="M151.5,929.3c-1.4,0-2.5-1.2-2.5-2.7V657c0-1.5,1.1-2.7,2.5-2.7s2.5,1.2,2.5,2.7v269.7
			C154,928.1,152.9,929.3,151.5,929.3z"/>
		<path id="XMLID_175_" class="st6" d="M151.5,719c-0.6,0-1.3-0.3-1.8-0.8c-1-1-1-2.7,0-3.8l19.8-21.3c1-1,2.5-1,3.5,0s1,2.7,0,3.8
			l-19.8,21.3C152.8,718.7,152.1,719,151.5,719z"/>
		<path id="XMLID_174_" class="st6" d="M151.5,794.5c-0.6,0-1.3-0.3-1.8-0.8c-1-1-1-2.7,0-3.8l19.8-21.3c1-1,2.5-1,3.5,0
			s1,2.7,0,3.8l-19.8,21.3C152.8,794.2,152.1,794.5,151.5,794.5z"/>
		<path id="XMLID_173_" class="st6" d="M151.5,858.5c-0.6,0-1.3-0.3-1.8-0.8c-1-1-1-2.7,0-3.8l19.8-21.3c1-1,2.5-1,3.5,0
			s1,2.7,0,3.8l-19.8,21.3C152.8,858.3,152.1,858.5,151.5,858.5z"/>
		<path id="XMLID_172_" class="st6" d="M151.5,744.9c-0.6,0-1.3-0.3-1.8-0.8l-19.8-21.3c-1-1-1-2.7,0-3.8c1-1,2.5-1,3.5,0l19.8,21.3
			c1,1,1,2.7,0,3.8C152.8,744.6,152.1,744.9,151.5,744.9z"/>
		<path id="XMLID_171_" class="st6" d="M151.5,693.5c-0.6,0-1.3-0.3-1.8-0.8l-19.8-21.3c-1-1-1-2.7,0-3.8c1-1,2.5-1,3.5,0l19.8,21.3
			c1,1,1,2.7,0,3.8C152.8,693.3,152.1,693.5,151.5,693.5z"/>
		<path id="XMLID_170_" class="st6" d="M151.5,828c-0.6,0-1.3-0.3-1.8-0.8l-19.8-21.3c-1-1-1-2.7,0-3.8c1-1,2.5-1,3.5,0l19.8,21.3
			c1,1,1,2.7,0,3.8C152.8,827.7,152.1,828,151.5,828z"/>
	</g>
	<g id="XMLID_178_">
		<ellipse id="XMLID_186_" class="st5" cx="694" cy="768.3" rx="39.9" ry="121.9"/>
		<path id="XMLID_185_" class="st6" d="M694,929.3c-1.1,0-2-1-2-2.2V706.6c0-1.2,0.9-2.2,2-2.2c1.1,0,2,1,2,2.2v220.5
			C696,928.3,695.1,929.3,694,929.3z"/>
		<path id="XMLID_184_" class="st6" d="M694,757.3c-0.5,0-1-0.2-1.4-0.6c-0.8-0.8-0.8-2.2,0-3.1l16.2-17.4c0.8-0.8,2.1-0.8,2.9,0
			s0.8,2.2,0,3.1l-16.2,17.4C695,757.1,694.5,757.3,694,757.3z"/>
		<path id="XMLID_183_" class="st6" d="M694,819c-0.5,0-1-0.2-1.4-0.6c-0.8-0.8-0.8-2.2,0-3.1l16.2-17.4c0.8-0.8,2.1-0.8,2.9,0
			s0.8,2.2,0,3.1l-16.2,17.4C695,818.8,694.5,819,694,819z"/>
		<path id="XMLID_182_" class="st6" d="M694,871.4c-0.5,0-1-0.2-1.4-0.6c-0.8-0.8-0.8-2.2,0-3.1l16.2-17.4c0.8-0.8,2.1-0.8,2.9,0
			s0.8,2.2,0,3.1l-16.2,17.4C695,871.2,694.5,871.4,694,871.4z"/>
		<path id="XMLID_181_" class="st6" d="M694,778.5c-0.5,0-1-0.2-1.4-0.6l-16.2-17.4c-0.8-0.8-0.8-2.2,0-3.1c0.8-0.8,2.1-0.8,2.9,0
			l16.2,17.4c0.8,0.8,0.8,2.2,0,3.1C695,778.3,694.5,778.5,694,778.5z"/>
		<path id="XMLID_180_" class="st6" d="M694,736.5c-0.5,0-1-0.2-1.4-0.6l-16.2-17.4c-0.8-0.8-0.8-2.2,0-3.1s2.1-0.8,2.9,0l16.2,17.4
			c0.8,0.8,0.8,2.2,0,3.1C695,736.3,694.5,736.5,694,736.5z"/>
		<path id="XMLID_179_" class="st6" d="M694,846.4c-0.5,0-1-0.2-1.4-0.6l-16.2-17.4c-0.8-0.8-0.8-2.2,0-3.1s2.1-0.8,2.9,0l16.2,17.4
			c0.8,0.8,0.8,2.2,0,3.1C695,846.2,694.5,846.4,694,846.4z"/>
	</g>
	<g id="XMLID_96_">
		<ellipse id="XMLID_3_" class="st3" cx="80.3" cy="768.3" rx="39.9" ry="121.9"/>
		<path id="XMLID_97_" class="st6" d="M80.3,929.3c-1.1,0-2-1-2-2.2V706.6c0-1.2,0.9-2.2,2-2.2s2,1,2,2.2v220.5
			C82.3,928.3,81.4,929.3,80.3,929.3z"/>
		<path id="XMLID_100_" class="st6" d="M80.3,757.3c-0.5,0-1-0.2-1.4-0.6c-0.8-0.8-0.8-2.2,0-3.1l16.2-17.4c0.8-0.8,2.1-0.8,2.9,0
			s0.8,2.2,0,3.1l-16.2,17.4C81.4,757.1,80.8,757.3,80.3,757.3z"/>
		<path id="XMLID_167_" class="st6" d="M80.3,819c-0.5,0-1-0.2-1.4-0.6c-0.8-0.8-0.8-2.2,0-3.1l16.2-17.4c0.8-0.8,2.1-0.8,2.9,0
			s0.8,2.2,0,3.1l-16.2,17.4C81.4,818.8,80.8,819,80.3,819z"/>
		<path id="XMLID_165_" class="st6" d="M80.3,871.4c-0.5,0-1-0.2-1.4-0.6c-0.8-0.8-0.8-2.2,0-3.1l16.2-17.4c0.8-0.8,2.1-0.8,2.9,0
			s0.8,2.2,0,3.1l-16.2,17.4C81.4,871.2,80.8,871.4,80.3,871.4z"/>
		<path id="XMLID_166_" class="st6" d="M80.3,778.5c-0.5,0-1-0.2-1.4-0.6l-16.2-17.4c-0.8-0.8-0.8-2.2,0-3.1c0.8-0.8,2.1-0.8,2.9,0
			l16.2,17.4c0.8,0.8,0.8,2.2,0,3.1C81.4,778.3,80.8,778.5,80.3,778.5z"/>
		<path id="XMLID_168_" class="st6" d="M80.3,736.5c-0.5,0-1-0.2-1.4-0.6l-16.2-17.4c-0.8-0.8-0.8-2.2,0-3.1c0.8-0.8,2.1-0.8,2.9,0
			l16.2,17.4c0.8,0.8,0.8,2.2,0,3.1C81.4,736.3,80.8,736.5,80.3,736.5z"/>
		<path id="XMLID_169_" class="st6" d="M80.3,846.4c-0.5,0-1-0.2-1.4-0.6l-16.2-17.4c-0.8-0.8-0.8-2.2,0-3.1c0.8-0.8,2.1-0.8,2.9,0
			l16.2,17.4c0.8,0.8,0.8,2.2,0,3.1C81.4,846.2,80.8,846.4,80.3,846.4z"/>
	</g>
	<g id="XMLID_187_">
		<ellipse id="XMLID_195_" class="st3" cx="771.7" cy="743.2" rx="46.1" ry="140.8"/>
		<path id="XMLID_194_" class="st6" d="M771.7,929.3c-1.3,0-2.3-1.1-2.3-2.5V671.9c0-1.4,1-2.5,2.3-2.5s2.3,1.1,2.3,2.5v254.9
			C774,928.2,772.9,929.3,771.7,929.3z"/>
		<path id="XMLID_193_" class="st6" d="M771.7,730.5c-0.6,0-1.2-0.2-1.7-0.7c-0.9-1-0.9-2.6,0-3.6l18.8-20.1c0.9-1,2.4-1,3.3,0
			s0.9,2.6,0,3.6l-18.8,20.1C772.8,730.3,772.2,730.5,771.7,730.5z"/>
		<path id="XMLID_192_" class="st6" d="M771.7,801.9c-0.6,0-1.2-0.2-1.7-0.7c-0.9-1-0.9-2.6,0-3.6l18.8-20.1c0.9-1,2.4-1,3.3,0
			c0.9,1,0.9,2.6,0,3.6l-18.8,20.1C772.8,801.6,772.2,801.9,771.7,801.9z"/>
		<path id="XMLID_191_" class="st6" d="M771.7,862.4c-0.6,0-1.2-0.2-1.7-0.7c-0.9-1-0.9-2.6,0-3.6l18.8-20.1c0.9-1,2.4-1,3.3,0
			s0.9,2.6,0,3.6l-18.8,20.1C772.8,862.2,772.2,862.4,771.7,862.4z"/>
		<path id="XMLID_190_" class="st6" d="M771.7,755c-0.6,0-1.2-0.2-1.7-0.7l-18.8-20.1c-0.9-1-0.9-2.6,0-3.6s2.4-1,3.3,0l18.8,20.1
			c0.9,1,0.9,2.6,0,3.6C772.8,754.8,772.2,755,771.7,755z"/>
		<path id="XMLID_189_" class="st6" d="M771.7,706.5c-0.6,0-1.2-0.2-1.7-0.7l-18.8-20.1c-0.9-1-0.9-2.6,0-3.6c0.9-1,2.4-1,3.3,0
			l18.8,20.1c0.9,1,0.9,2.6,0,3.6C772.8,706.2,772.2,706.5,771.7,706.5z"/>
		<path id="XMLID_188_" class="st6" d="M771.7,833.5c-0.6,0-1.2-0.2-1.7-0.7l-18.8-20.1c-0.9-1-0.9-2.6,0-3.6c0.9-1,2.4-1,3.3,0
			l18.8,20.1c0.9,1,0.9,2.6,0,3.6C772.8,833.3,772.2,833.5,771.7,833.5z"/>
	</g>
	<path id="XMLID_197_" class="st0" d="M249.1,511.6c-1.3-6.8-5.9-12.4-11.8-14.8c-1.1-10.1-9.1-17.9-18.7-17.9
		c-1.7,0-3.2,0.2-4.8,0.7c-1.9-9-9.4-15.6-18.4-15.6c-2.3,0-4.4,0.5-6.5,1.2c-2.3-13.3-13.2-23.4-26.2-23.4
		c-14.3,0-25.9,12-26.6,27.2c0,0-0.1,0-0.1,0c-10.4,0-18.9,9.1-18.9,20.3c0,2.2,0.3,4.2,0.9,6.2c-0.3,0-0.6,0-0.9,0
		c-2.1,0-4.1,0.5-5.8,1.5c-1-10.1-9-18-18.8-18c-9.7,0-17.7,7.9-18.8,18.1c-2.2-1-4.6-1.5-7.2-1.5c-9.1,0-16.7,6.9-18.5,16.1
		L249.1,511.6L249.1,511.6z"/>
	<path id="XMLID_204_" class="st0" d="M482.2,143.1c-1-5-4.3-9-8.6-10.8c-0.8-7.3-6.6-13-13.7-13c-1.2,0-2.4,0.2-3.5,0.5
		c-1.4-6.5-6.9-11.4-13.4-11.4c-1.7,0-3.2,0.3-4.7,0.9c-1.7-9.7-9.6-17-19.1-17c-10.4,0-18.9,8.8-19.4,19.8c0,0,0,0,0,0
		c-7.6,0-13.8,6.6-13.8,14.8c0,1.6,0.2,3.1,0.7,4.5c-0.2,0-0.4,0-0.7,0c-1.5,0-3,0.4-4.3,1.1c-0.8-7.4-6.6-13.2-13.7-13.2
		s-12.9,5.8-13.7,13.2c-1.6-0.7-3.4-1.1-5.2-1.1c-6.6,0-12.2,5-13.5,11.7L482.2,143.1L482.2,143.1z"/>
	<path id="XMLID_196_" class="st0" d="M718.3,365.5c-1.7-8.4-7.2-15.3-14.6-18.3c-1.4-12.5-11.2-22.2-23.2-22.2c-2,0-4,0.3-5.9,0.9
		c-2.4-11.1-11.7-19.4-22.8-19.4c-2.8,0-5.5,0.6-8,1.5c-2.9-16.5-16.3-29-32.5-29c-17.7,0-32.1,14.9-33,33.7c0,0-0.1,0-0.1,0
		c-12.9,0-23.4,11.3-23.4,25.1c0,2.7,0.4,5.3,1.1,7.7c-0.4,0-0.8-0.1-1.1-0.1c-2.6,0-5.1,0.7-7.2,1.9c-1.3-12.6-11.2-22.4-23.3-22.4
		c-12.1,0-22,9.8-23.3,22.4c-2.7-1.2-5.7-1.9-8.9-1.9c-11.3,0-20.7,8.6-22.9,20L718.3,365.5L718.3,365.5z"/>
	<path id="XMLID_206_" class="st0" d="M-6.3,246.5h205.1c-1.7-8.4-7.2-15.3-14.6-18.3c-1.4-12.5-11.2-22.2-23.2-22.2
		c-2.1,0-4,0.3-5.9,0.9c-2.4-11.1-11.7-19.4-22.8-19.4c-2.8,0-5.5,0.6-8,1.5c-2.9-16.5-16.3-29-32.5-29c-17.7,0-32.1,14.9-33,33.7
		c0,0-0.1,0-0.1,0c-12.9,0-23.4,11.3-23.4,25.1c0,2.7,0.4,5.3,1.1,7.7c-0.4,0-0.8-0.1-1.1-0.1c-2.6,0-5.1,0.7-7.2,1.9
		C26.5,215.8,16.6,206,4.6,206c-3.9,0-7.7,1.1-10.9,2.9C-6.3,208.9-6.3,246.5-6.3,246.5z"/>
	<path class="st0" d="M-133,34.2"/>
</g>
</svg>
