<?xml version="1.0" encoding="utf-8"?>
<!-- Generator: Adobe Illustrator 24.3.0, SVG Export Plug-In . SVG Version: 6.00 Build 0)  -->
<svg version="1.1" id="Layer_1" xmlns="http://www.w3.org/2000/svg" xmlns:xlink="http://www.w3.org/1999/xlink" x="0px" y="0px"
	 viewBox="0 0 1920 1080" style="enable-background:new 0 0 1920 1080;" xml:space="preserve">
<style type="text/css">
	.st0{fill:#FFFFFF;}
	.st1{fill:#CFD8E7;}
	.st2{opacity:0.3;fill:#FFFFFF;}
	.st3{fill:#FFC828;}
	.st4{opacity:0.5;fill:#CFD8E7;}
	.st5{fill:#29C3EC;}
	.st6{fill:#18386D;}
	.st7{fill:#FFE9A9;}
	.st8{fill:url(#XMLID_108_);}
	.st9{fill:#5A9FC2;}
	.st10{fill:url(#XMLID_156_);}
	.st11{fill:url(#XMLID_157_);}
	.st12{fill:url(#XMLID_158_);}
	.st13{fill:url(#XMLID_159_);}
	.st14{fill:url(#XMLID_160_);}
	.st15{fill:#A61B19;}
	.st16{fill:#E35030;}
</style>
<g id="XMLID_214_">
	<path id="XMLID_18_" class="st0" d="M1771.36,1080H4.29c-5.88,0-10.64-4.76-10.64-10.64V10.64C-6.35,4.76-1.59,0,4.29,0h1767.07
		c5.88,0,10.64,4.76,10.64,10.64v1058.72C1782,1075.24,1777.24,1080,1771.36,1080z"/>
	<path id="XMLID_73_" class="st1" d="M274.96,0c0,0,300.25,44.49,412.14,393.3s129.09,409.55,369.77,421.24
		c240.68,11.69,282.71,176.59,276.98,265.46H24.14c-16.84,0-30.49-14.66-30.49-32.75V32.75C-6.35,14.66,7.3,0,24.14,0H274.96z"/>
	<path id="XMLID_198_" class="st0" d="M756.63,618.4c-0.92-4.69-4.03-8.51-8.13-10.18c-0.76-6.94-6.25-12.32-12.92-12.32
		c-1.14,0-2.24,0.17-3.3,0.47c-1.35-6.18-6.5-10.79-12.66-10.79c-1.57,0-3.06,0.31-4.46,0.86c-1.6-9.16-9.08-16.1-18.08-16.1
		c-9.84,0-17.86,8.31-18.36,18.75c-0.02,0-0.03,0-0.05,0c-7.19,0-13.02,6.26-13.02,13.98c0,1.49,0.22,2.93,0.63,4.28
		c-0.21-0.02-0.42-0.03-0.63-0.03c-1.45,0-2.82,0.38-4.03,1.03c-0.72-6.99-6.23-12.44-12.93-12.44c-6.71,0-12.23,5.45-12.93,12.45
		c-1.52-0.67-3.18-1.04-4.93-1.04c-6.27,0-11.49,4.76-12.73,11.09H756.63z"/>
	<g id="XMLID_201_">
		<ellipse id="XMLID_200_" class="st2" cx="230.02" cy="428.81" rx="101.06" ry="108.55"/>
		<ellipse id="XMLID_199_" class="st2" cx="230.02" cy="428.81" rx="81.01" ry="87.01"/>
		<ellipse id="XMLID_78_" class="st3" cx="230.02" cy="428.81" rx="55.72" ry="59.85"/>
	</g>
	<path id="XMLID_211_" class="st4" d="M695.74,832.35l-55.49-227.31c-1.06-4.33-7.8-4.33-8.85,0l-17.08,69.97
		c-8.41-23.36-20.37-37.97-33.64-37.97c-10.53,0-20.23,9.21-28,24.68c-9.31-34.03-24.57-56.24-41.84-56.24
		c-19.43,0-36.34,28.11-45.06,69.55l-26.22-107.41c-1.18-4.85-8.74-4.85-9.92,0l-31.16,127.63l-21.13-86.57
		c-1.04-4.28-7.71-4.28-8.75,0l-18.73,76.74c-8.41-29.36-21.85-48.38-37-48.38c-14.46,0-27.36,17.34-35.82,44.44l-17.77-72.81
		c-1.04-4.28-7.71-4.28-8.75,0l-18.56,76.03c-7.52-52.59-26.98-90.06-49.81-90.06c-21.05,0-39.24,31.86-47.84,78.06l-26.6-108.97
		c-1.2-4.9-8.83-4.9-10.03,0L34.81,821.28c-0.72,2.94,1.73,5.73,5.02,5.73h57.76v83.95c0,2.58,2.29,4.68,5.11,4.68
		c2.82,0,5.11-2.09,5.11-4.68v-83.95h35.42c9.13,25.58,21.93,42.17,36.22,44.03v42.12c0,1.37,1.21,2.48,2.7,2.48
		c1.49,0,2.7-1.11,2.7-2.48v-42.12c12.06-1.57,23.05-13.63,31.68-32.71h33.9v73.23c0,2.25,2,4.08,4.46,4.08s4.46-1.83,4.46-4.08
		v-73.23h19.59c7.93,22.42,19.1,36.98,31.57,38.6v36.55c0,1.19,1.05,2.15,2.35,2.15s2.35-0.96,2.35-2.15v-36.55
		c12.48-1.63,23.64-16.19,31.57-38.6h21.73v73.23c0,2.25,2,4.08,4.46,4.08s4.46-1.83,4.46-4.08v-73.23h50.38
		c0.62,0,1.2-0.13,1.73-0.34v73.02c0,2.56,2.26,4.63,5.06,4.63s5.05-2.07,5.05-4.63v-83.02h32.87
		c8.86,25.86,21.52,42.71,35.71,44.56v40.7c0,1.32,1.17,2.39,2.61,2.39c1.44,0,2.61-1.07,2.61-2.39v-40.7
		c12.6-1.65,24-15.12,32.6-36.24c7.97,23.57,19.43,38.95,32.28,40.62v36.55c0,1.19,1.05,2.15,2.35,2.15c1.3,0,2.35-0.96,2.35-2.15
		v-36.55c12.65-1.65,23.94-16.58,31.89-39.52h16.39v74.09c0,2.28,2.02,4.13,4.51,4.13c2.49,0,4.51-1.85,4.51-4.13v-74.09h50.98
		C694.22,837.41,696.37,834.95,695.74,832.35z"/>
	<g id="XMLID_80_">
		<ellipse id="XMLID_177_" class="st5" cx="151.49" cy="724.42" rx="48.79" ry="149.03"/>
		<path id="XMLID_176_" class="st6" d="M151.49,921.31c-1.37,0-2.48-1.19-2.48-2.67V648.95c0-1.47,1.11-2.67,2.48-2.67
			c1.37,0,2.48,1.19,2.48,2.67v269.69C153.97,920.12,152.86,921.31,151.49,921.31z"/>
		<path id="XMLID_175_" class="st6" d="M151.49,710.98c-0.64,0-1.27-0.26-1.76-0.78c-0.97-1.04-0.97-2.73,0-3.77l19.84-21.31
			c0.97-1.04,2.54-1.04,3.51,0c0.97,1.04,0.97,2.73,0,3.77l-19.84,21.31C152.76,710.71,152.13,710.98,151.49,710.98z"/>
		<path id="XMLID_174_" class="st6" d="M151.49,786.47c-0.64,0-1.27-0.26-1.76-0.78c-0.97-1.04-0.97-2.73,0-3.77l19.84-21.31
			c0.97-1.04,2.54-1.04,3.51,0c0.97,1.04,0.97,2.73,0,3.77l-19.84,21.31C152.76,786.21,152.13,786.47,151.49,786.47z"/>
		<path id="XMLID_173_" class="st6" d="M151.49,850.53c-0.64,0-1.27-0.26-1.76-0.78c-0.97-1.04-0.97-2.73,0-3.77l19.84-21.31
			c0.97-1.04,2.54-1.04,3.51,0c0.97,1.04,0.97,2.73,0,3.77l-19.84,21.31C152.76,850.27,152.13,850.53,151.49,850.53z"/>
		<path id="XMLID_172_" class="st6" d="M151.49,736.9c-0.64,0-1.27-0.26-1.76-0.78l-19.84-21.31c-0.97-1.04-0.97-2.73,0-3.77
			c0.97-1.04,2.54-1.04,3.51,0l19.84,21.31c0.97,1.04,0.97,2.73,0,3.77C152.76,736.64,152.13,736.9,151.49,736.9z"/>
		<path id="XMLID_171_" class="st6" d="M151.49,685.52c-0.64,0-1.27-0.26-1.76-0.78l-19.84-21.31c-0.97-1.04-0.97-2.73,0-3.77
			c0.97-1.04,2.54-1.04,3.51,0l19.84,21.31c0.97,1.04,0.97,2.73,0,3.77C152.76,685.26,152.13,685.52,151.49,685.52z"/>
		<path id="XMLID_170_" class="st6" d="M151.49,819.95c-0.64,0-1.27-0.26-1.76-0.78l-19.84-21.31c-0.97-1.04-0.97-2.73,0-3.77
			c0.97-1.04,2.54-1.04,3.51,0l19.84,21.31c0.97,1.04,0.97,2.73,0,3.77C152.76,819.69,152.13,819.95,151.49,819.95z"/>
	</g>
	<g id="XMLID_178_">
		<ellipse id="XMLID_186_" class="st5" cx="694.01" cy="760.3" rx="39.9" ry="121.87"/>
		<path id="XMLID_185_" class="st6" d="M694.02,921.31c-1.12,0-2.03-0.98-2.03-2.18V698.59c0-1.21,0.91-2.18,2.03-2.18
			c1.12,0,2.03,0.98,2.03,2.18v220.54C696.05,920.34,695.14,921.31,694.02,921.31z"/>
		<path id="XMLID_184_" class="st6" d="M694.02,749.31c-0.52,0-1.04-0.21-1.44-0.64c-0.79-0.85-0.79-2.23,0-3.08l16.23-17.43
			c0.79-0.85,2.08-0.85,2.87,0c0.79,0.85,0.79,2.23,0,3.09l-16.23,17.43C695.05,749.1,694.54,749.31,694.02,749.31z"/>
		<path id="XMLID_183_" class="st6" d="M694.02,811.05c-0.52,0-1.04-0.21-1.44-0.64c-0.79-0.85-0.79-2.23,0-3.08l16.23-17.43
			c0.79-0.85,2.08-0.85,2.87,0c0.79,0.85,0.79,2.23,0,3.09l-16.23,17.43C695.05,810.83,694.54,811.05,694.02,811.05z"/>
		<path id="XMLID_182_" class="st6" d="M694.02,863.43c-0.52,0-1.04-0.21-1.44-0.64c-0.79-0.85-0.79-2.23,0-3.09l16.23-17.43
			c0.79-0.85,2.08-0.85,2.87,0c0.79,0.85,0.79,2.23,0,3.08l-16.23,17.43C695.05,863.22,694.54,863.43,694.02,863.43z"/>
		<path id="XMLID_181_" class="st6" d="M694.02,770.51c-0.52,0-1.04-0.21-1.44-0.64l-16.23-17.43c-0.79-0.85-0.79-2.23,0-3.09
			c0.79-0.85,2.08-0.85,2.87,0l16.23,17.43c0.79,0.85,0.79,2.23,0,3.09C695.05,770.29,694.54,770.51,694.02,770.51z"/>
		<path id="XMLID_180_" class="st6" d="M694.02,728.49c-0.52,0-1.04-0.21-1.44-0.64l-16.23-17.43c-0.79-0.85-0.79-2.23,0-3.09
			s2.08-0.85,2.87,0l16.23,17.43c0.79,0.85,0.79,2.23,0,3.08C695.05,728.28,694.54,728.49,694.02,728.49z"/>
		<path id="XMLID_179_" class="st6" d="M694.02,838.42c-0.52,0-1.04-0.21-1.44-0.64l-16.23-17.43c-0.79-0.85-0.79-2.23,0-3.08
			s2.08-0.85,2.87,0l16.23,17.43c0.79,0.85,0.79,2.23,0,3.08C695.05,838.21,694.54,838.42,694.02,838.42z"/>
	</g>
	<!-- "bus" -->
	<g id="XMLID_155_">
		<g id="XMLID_92_">
			<g id="XMLID_88_">
				<rect id="XMLID_71_" x="364.99" y="654.75" class="st3" width="107.05" height="6.22"/>
				<path id="XMLID_5_" class="st3" d="M574.21,682.6H134.42v-17.47c0-2.29,1.86-4.15,4.15-4.15h431.49c2.29,0,4.15,1.86,4.15,4.15
					V682.6z"/>
				<polygon id="XMLID_6_" class="st3" points="134.42,682.6 121,781.54 121,871.96 580.68,871.96 580.68,749.43 574.21,682.6 				
					"/>
				<rect id="XMLID_7_" x="134.42" y="676.05" class="st3" width="439.79" height="6.55"/>
				<path id="XMLID_8_" class="st3" d="M580.68,749.43l102.96,32.7c10.72,3.4,18.07,13.98,18.07,25.98v63.84H580.68V749.43z"/>
				<path id="XMLID_24_" class="st7" d="M642.94,808.62c-29,0-52.5,25.25-52.5,56.39c0,2.35,0.15,4.67,0.41,6.94h104.18
					c0.26-2.28,0.41-4.59,0.41-6.94C695.44,833.87,671.93,808.62,642.94,808.62z"/>
				<path id="XMLID_16_" class="st6" d="M687.98,865.4c0-24.97-20.28-45.21-45.29-45.21s-45.29,20.24-45.29,45.21
					c0,2.23,0.17,4.41,0.48,6.55h89.62C687.81,869.82,687.98,867.63,687.98,865.4z"/>
				<path id="XMLID_14_" class="st6" d="M292,865.4c0-24.97-22.03-45.21-49.21-45.21s-49.21,20.24-49.21,45.21
					c0,2.23,0.18,4.41,0.52,6.55h97.37C291.81,869.82,292,867.63,292,865.4z"/>
				<g id="XMLID_15_">
					<ellipse id="XMLID_21_" class="st6" cx="642.94" cy="873.92" rx="38.84" ry="41.71"/>
					<path id="XMLID_19_" class="st1" d="M662.05,873.92c0-11.34-8.56-20.53-19.11-20.53s-19.11,9.19-19.11,20.53
						c0,11.34,8.56,20.53,19.11,20.53S662.05,885.26,662.05,873.92z"/>
					<path id="XMLID_17_" class="st6" d="M650.06,873.92c0-4.22-3.19-7.64-7.12-7.64s-7.12,3.42-7.12,7.64
						c0,4.22,3.19,7.64,7.12,7.64S650.06,878.14,650.06,873.92z"/>
				</g>
				<path id="XMLID_22_" class="st6" d="M704.35,873.1h-26.75V858.2h26.75c0.73,0,1.31,0.59,1.31,1.31v12.28
					C705.67,872.51,705.08,873.1,704.35,873.1z"/>
				<path id="XMLID_26_" class="st7" d="M683.63,782.13l-102.96-32.7v11.9l96.93,29.38c0,0,24.09,10.92,24.09,33.2v-15.8
					C701.7,796.11,694.35,785.53,683.63,782.13z"/>
				<linearGradient id="XMLID_108_" gradientUnits="userSpaceOnUse" x1="580.6756" y1="810.6932" x2="590.8871" y2="810.6932">
					<stop  offset="0" style="stop-color:#FFAA28"/>
					<stop  offset="1" style="stop-color:#FFFFFF"/>
				</linearGradient>
				<polygon id="XMLID_27_" class="st8" points="580.68,749.43 580.68,871.96 590.89,871.96 590.89,752.67 				"/>
				<path id="XMLID_9_" class="st6" d="M580.68,873.1h-461.6c-0.54,0-0.98-0.44-0.98-0.98v-6.72h462.58V873.1z"/>
				<g id="XMLID_10_">
					<ellipse id="XMLID_11_" class="st6" cx="242.79" cy="873.92" rx="38.84" ry="41.71"/>
					<path id="XMLID_12_" class="st1" d="M261.9,873.92c0-11.34-8.56-20.53-19.11-20.53s-19.11,9.19-19.11,20.53
						c0,11.34,8.56,20.53,19.11,20.53S261.9,885.26,261.9,873.92z"/>
					<path id="XMLID_13_" class="st6" d="M249.91,873.92c0-4.22-3.19-7.64-7.12-7.64c-3.93,0-7.12,3.42-7.12,7.64
						c0,4.22,3.19,7.64,7.12,7.64C246.72,881.56,249.91,878.14,249.91,873.92z"/>
				</g>
				<path id="XMLID_23_" class="st6" d="M574.47,685.28l-7.51,2.94c-1.75,0.69-2.92,2.48-2.92,4.48v50.2c0,3.57,3.51,5.87,6.47,4.24
					l9.82-1.25L574.47,685.28z"/>
				<path id="XMLID_29_" class="st5" d="M574.77,688.34l-6.97,2.35c-0.78,0.31-1.31,1.12-1.31,2.01v50.2c0,1.33,1.04,2.15,2,2.15
					c0.31,0,0.62-0.08,0.91-0.24l0.39-0.22l10.25-1.69L574.77,688.34z"/>
				<path id="XMLID_30_" class="st9" d="M578.38,725.72l-3.61-37.38l-1,0.34l-7.28,51.69v2.53c0,1.33,1.04,2.15,2,2.15
					c0.31,0,0.62-0.08,0.91-0.24l0.39-0.22l6.67-1.1L578.38,725.72z"/>
				<linearGradient id="XMLID_156_" gradientUnits="userSpaceOnUse" x1="519.096" y1="687.8419" x2="519.096" y2="821.5443">
					<stop  offset="0" style="stop-color:#FFAA28"/>
					<stop  offset="1" style="stop-color:#FFFFFF"/>
				</linearGradient>
				<rect id="XMLID_37_" x="477.92" y="686.93" class="st10" width="82.35" height="175.17"/>
				<g id="XMLID_25_">
					<path id="XMLID_28_" class="st6" d="M516.12,773.1h-31.06c-0.91,0-1.65-0.74-1.65-1.65v-76.26c0-0.91,0.74-1.65,1.65-1.65
						h31.06c0.91,0,1.65,0.74,1.65,1.65v76.26C517.78,772.36,517.04,773.1,516.12,773.1z"/>
					<path id="XMLID_31_" class="st5" d="M485.85,769.68v-72.73c0-0.44,0.36-0.8,0.8-0.8h27.89c0.44,0,0.8,0.36,0.8,0.8v72.73
						c0,0.44-0.36,0.8-0.8,0.8h-27.89C486.21,770.48,485.85,770.12,485.85,769.68z"/>
					<path id="XMLID_32_" class="st6" d="M553.13,773.1h-31.06c-0.91,0-1.65-0.74-1.65-1.65v-76.26c0-0.91,0.74-1.65,1.65-1.65
						h31.06c0.91,0,1.65,0.74,1.65,1.65v76.26C554.78,772.36,554.04,773.1,553.13,773.1z"/>
					<path id="XMLID_33_" class="st5" d="M522.85,769.68v-72.73c0-0.44,0.36-0.8,0.8-0.8h27.89c0.44,0,0.8,0.36,0.8,0.8v72.73
						c0,0.44-0.36,0.8-0.8,0.8h-27.89C523.21,770.48,522.85,770.12,522.85,769.68z"/>
					<path id="XMLID_36_" class="st6" d="M516.12,855.49h-31.06c-0.91,0-1.65-0.74-1.65-1.65v-76.26c0-0.91,0.74-1.65,1.65-1.65
						h31.06c0.91,0,1.65,0.74,1.65,1.65v76.26C517.78,854.75,517.04,855.49,516.12,855.49z"/>
					<path id="XMLID_35_" class="st5" d="M485.85,852.07v-72.73c0-0.44,0.36-0.8,0.8-0.8h27.89c0.44,0,0.8,0.36,0.8,0.8v72.73
						c0,0.44-0.36,0.8-0.8,0.8h-27.89C486.21,852.88,485.85,852.52,485.85,852.07z"/>
					<path id="XMLID_34_" class="st6" d="M553.13,855.49h-31.06c-0.91,0-1.65-0.74-1.65-1.65v-76.26c0-0.91,0.74-1.65,1.65-1.65
						h31.06c0.91,0,1.65,0.74,1.65,1.65v76.26C554.78,854.75,554.04,855.49,553.13,855.49z"/>
					<path id="XMLID_38_" class="st5" d="M522.85,852.07v-72.73c0-0.44,0.36-0.8,0.8-0.8h27.89c0.44,0,0.8,0.36,0.8,0.8v72.73
						c0,0.44-0.36,0.8-0.8,0.8h-27.89C523.21,852.88,522.85,852.52,522.85,852.07z"/>
					<path id="XMLID_46_" class="st5" d="M485.85,850.41c0,1.36,1.03,2.47,2.3,2.47h24.89c1.27,0,2.3-1.11,2.3-2.47v-31.36h-29.49
						V850.41z M522.85,819.05v31.36c0,1.36,1.03,2.47,2.3,2.47h24.89c1.27,0,2.3-1.11,2.3-2.47v-31.36H522.85z"/>
					<path id="XMLID_49_" class="st5" d="M522.85,822.6v3.71h29.49v-3.71H522.85z M485.85,826.31h29.49v-3.71h-29.49V826.31z"/>
					<path id="XMLID_39_" class="st5" d="M522.85,841.92v1.42h29.49v-1.42H522.85z M485.85,843.34h29.49v-1.42h-29.49V843.34z"/>
					<path id="XMLID_116_" class="st5" d="M525.15,770.48h4.4l-6.7-11.63v9.16C522.85,769.37,523.88,770.48,525.15,770.48z
						 M513.04,696.15H492.2l23.14,40.15v-37.68C515.34,697.26,514.31,696.15,513.04,696.15z M485.85,698.62v22.49l28.28,49.06
						c0.72-0.42,1.21-1.23,1.21-2.16v-22.19l-28.41-49.29C486.28,696.97,485.85,697.74,485.85,698.62z M525.15,778.54
						c-1.27,0-2.3,1.11-2.3,2.47v4.29l29.49,51.17v-26.46l-18.14-31.47H525.15z M550.04,778.54h-10.35l12.65,21.94v-19.47
						C552.34,779.65,551.31,778.54,550.04,778.54z M522.85,709.64v39.68l12.19,21.15h15c1.27,0,2.3-1.11,2.3-2.47v-7.2
						L522.85,709.64z"/>
				</g>
				<g id="XMLID_42_">
					<g id="XMLID_43_">
						<path id="XMLID_44_" class="st6" d="M466.49,754h-53.55c-1.05,0-1.89-0.85-1.89-1.89v-54.6c0-1.05,0.85-1.89,1.89-1.89h53.55
							c1.05,0,1.89,0.85,1.89,1.89v54.6C468.38,753.15,467.53,754,466.49,754z"/>
						<path id="XMLID_64_" class="st5" d="M414.7,749.45v-49.3c0-0.34,0.28-0.62,0.62-0.62h48.79c0.34,0,0.62,0.28,0.62,0.62v49.3
							c0,0.34-0.28,0.62-0.62,0.62h-48.79C414.98,750.07,414.7,749.79,414.7,749.45z"/>
					</g>
					<g id="XMLID_45_">
						<path id="XMLID_53_" class="st6" d="M399.28,754h-53.55c-1.05,0-1.89-0.85-1.89-1.89v-54.6c0-1.05,0.85-1.89,1.89-1.89h53.55
							c1.05,0,1.89,0.85,1.89,1.89v54.6C401.17,753.15,400.32,754,399.28,754z"/>
						<path id="XMLID_61_" class="st5" d="M347.49,749.45v-49.3c0-0.34,0.28-0.62,0.62-0.62h48.79c0.34,0,0.62,0.28,0.62,0.62v49.3
							c0,0.34-0.28,0.62-0.62,0.62h-48.79C347.77,750.07,347.49,749.79,347.49,749.45z"/>
					</g>
					<g id="XMLID_54_">
						<path id="XMLID_56_" class="st6" d="M332.06,754h-53.55c-1.05,0-1.89-0.85-1.89-1.89v-54.6c0-1.05,0.85-1.89,1.89-1.89h53.55
							c1.05,0,1.89,0.85,1.89,1.89v54.6C333.96,753.15,333.11,754,332.06,754z"/>
						<path id="XMLID_58_" class="st5" d="M280.28,749.45v-49.3c0-0.34,0.28-0.62,0.62-0.62h48.79c0.34,0,0.62,0.28,0.62,0.62v49.3
							c0,0.34-0.28,0.62-0.62,0.62h-48.79C280.55,750.07,280.28,749.79,280.28,749.45z"/>
					</g>
					<g id="XMLID_57_">
						<path id="XMLID_59_" class="st6" d="M264.85,754H211.3c-1.05,0-1.89-0.85-1.89-1.89v-54.6c0-1.05,0.85-1.89,1.89-1.89h53.55
							c1.05,0,1.89,0.85,1.89,1.89v54.6C266.75,753.15,265.9,754,264.85,754z"/>
						<path id="XMLID_55_" class="st5" d="M213.07,749.45v-49.3c0-0.34,0.28-0.62,0.62-0.62h48.79c0.34,0,0.62,0.28,0.62,0.62v49.3
							c0,0.34-0.28,0.62-0.62,0.62h-48.79C213.34,750.07,213.07,749.79,213.07,749.45z"/>
					</g>
					<g id="XMLID_52_">
						<path id="XMLID_62_" class="st6" d="M197.64,754h-53.55c-1.05,0-1.89-0.85-1.89-1.89v-54.6c0-1.05,0.85-1.89,1.89-1.89h53.55
							c1.05,0,1.89,0.85,1.89,1.89v54.6C199.53,753.15,198.69,754,197.64,754z"/>
						<path id="XMLID_60_" class="st5" d="M145.85,749.45v-49.3c0-0.34,0.28-0.62,0.62-0.62h48.79c0.34,0,0.62,0.28,0.62,0.62v49.3
							c0,0.34-0.28,0.62-0.62,0.62h-48.79C146.13,750.07,145.85,749.79,145.85,749.45z"/>
						<path id="XMLID_89_" class="st5" d="M147.62,750.07h4.81c0-0.06-0.01-0.11-0.01-0.17v-50.19c0-0.06,0.01-0.11,0.01-0.17h-4.81
							c-0.97,0-1.77,0.85-1.77,1.9v46.74C145.85,749.22,146.65,750.07,147.62,750.07z"/>
					</g>
					<path id="XMLID_120_" class="st5" d="M194.11,699.54h-11.95l13.72,23.8v-21.9C195.87,700.39,195.08,699.54,194.11,699.54z
						 M225.77,699.54h-10.94c-0.97,0-1.77,0.85-1.77,1.9v15.75l18.96,32.88h22.87L225.77,699.54z M213.07,748.17
						c0,1.05,0.79,1.9,1.77,1.9h11.7l-13.47-23.36V748.17z"/>
					<path id="XMLID_117_" class="st5" d="M328.53,699.54h-6.29l8.05,13.97v-12.07C330.3,700.39,329.51,699.54,328.53,699.54z
						 M301.51,699.54l28.56,49.55c0.14-0.27,0.23-0.58,0.23-0.92v-25.14l-13.54-23.49H301.51z M347.49,703.65v39.68l3.88,6.74h22.87
						L347.49,703.65z"/>
				</g>
				<path id="XMLID_63_" class="st6" d="M120.48,770.48h345.53c1.31,0,2.38-1.14,2.38-2.55l0,0c0-1.41-1.06-2.55-2.38-2.55H120.48
					c-1.31,0-2.38,1.14-2.38,2.55l0,0C118.1,769.34,119.16,770.48,120.48,770.48z"/>
				<path id="XMLID_65_" class="st6" d="M128.82,802.5h337.19c1.31,0,2.38-1.14,2.38-2.55l0,0c0-1.41-1.06-2.55-2.38-2.55H128.82
					c-1.31,0-2.38,1.14-2.38,2.55l0,0C126.44,801.36,127.51,802.5,128.82,802.5z"/>
				<path id="XMLID_66_" class="st6" d="M137.16,838.51h49.92c1.31,0,2.38-1.14,2.38-2.55l0,0c0-1.41-1.06-2.55-2.38-2.55h-49.92
					c-1.31,0-2.38,1.14-2.38,2.55l0,0C134.79,837.37,135.85,838.51,137.16,838.51z"/>
				<path id="XMLID_67_" class="st6" d="M294.37,838.51h170.97c1.31,0,2.38-1.14,2.38-2.55l0,0c0-1.41-1.06-2.55-2.38-2.55H294.37
					c-1.31,0-2.38,1.14-2.38,2.55l0,0C292,837.37,293.06,838.51,294.37,838.51z"/>
				<linearGradient id="XMLID_157_" gradientUnits="userSpaceOnUse" x1="354.2332" y1="687.0775" x2="354.2332" y2="682.5991">
					<stop  offset="0" style="stop-color:#FFFFFF"/>
					<stop  offset="1" style="stop-color:#FFAA28"/>
				</linearGradient>
				<polygon id="XMLID_70_" class="st11" points="574.63,686.93 574.21,682.6 134.42,682.6 133.83,686.93 				"/>
				<path id="XMLID_68_" class="st6" d="M134.79,873.1h-15.71c-0.54,0-0.98-0.44-0.98-0.98v-15.58c0-0.54,0.44-0.98,0.98-0.98h15.71
					V873.1z"/>
				<rect id="XMLID_69_" x="179.56" y="654.75" class="st3" width="107.05" height="6.22"/>
				<linearGradient id="XMLID_158_" gradientUnits="userSpaceOnUse" x1="233.0813" y1="660.9787" x2="233.0813" y2="657.8662">
					<stop  offset="0" style="stop-color:#FFAA28"/>
					<stop  offset="1" style="stop-color:#FFFFFF"/>
				</linearGradient>
				<rect id="XMLID_72_" x="179.56" y="657.87" class="st12" width="107.05" height="3.11"/>
				<linearGradient id="XMLID_159_" gradientUnits="userSpaceOnUse" x1="418.5161" y1="660.9787" x2="418.5161" y2="657.8662">
					<stop  offset="0" style="stop-color:#FFAA28"/>
					<stop  offset="1" style="stop-color:#FFFFFF"/>
				</linearGradient>
				<rect id="XMLID_75_" x="364.99" y="657.87" class="st13" width="107.05" height="3.11"/>
				<path id="XMLID_74_" class="st3" d="M541.19,654.2l-25.85,6.78h32.49v-1.17C547.83,656.07,544.57,653.32,541.19,654.2z"/>
				<linearGradient id="XMLID_160_" gradientUnits="userSpaceOnUse" x1="531.587" y1="660.9787" x2="531.587" y2="657.8662">
					<stop  offset="0" style="stop-color:#FFAA28"/>
					<stop  offset="1" style="stop-color:#FFFFFF"/>
				</linearGradient>
				<path id="XMLID_81_" class="st14" d="M547.52,657.87h-20.31l-11.87,3.11h32.49v-1.17C547.83,659.12,547.72,658.47,547.52,657.87
					z"/>
				<g id="XMLID_76_">
					<path id="XMLID_77_" class="st15" d="M560.64,672.66h-11.59c-1.52,0-2.74-1.32-2.74-2.95l0,0c0-1.63,1.23-2.95,2.74-2.95h11.59
						c1.52,0,2.74,1.32,2.74,2.95l0,0C563.39,671.34,562.16,672.66,560.64,672.66z"/>
					<path id="XMLID_79_" class="st16" d="M560.23,672.66h-10.77c-0.45,0-0.82-0.37-0.82-0.82v-4.26c0-0.45,0.37-0.82,0.82-0.82
						h10.77c0.45,0,0.82,0.37,0.82,0.82v4.26C561.05,672.3,560.68,672.66,560.23,672.66z"/>
				</g>
				<g id="XMLID_83_">
					<path id="XMLID_87_" class="st15" d="M429.04,672.66h-11.59c-1.52,0-2.74-1.32-2.74-2.95l0,0c0-1.63,1.23-2.95,2.74-2.95h11.59
						c1.52,0,2.74,1.32,2.74,2.95l0,0C431.78,671.34,430.55,672.66,429.04,672.66z"/>
					<path id="XMLID_84_" class="st16" d="M428.63,672.66h-10.77c-0.45,0-0.82-0.37-0.82-0.82v-4.26c0-0.45,0.37-0.82,0.82-0.82
						h10.77c0.45,0,0.82,0.37,0.82,0.82v4.26C429.44,672.3,429.08,672.66,428.63,672.66z"/>
				</g>
				<g id="XMLID_94_">
					<path id="XMLID_98_" class="st15" d="M297.43,672.66h-11.59c-1.52,0-2.74-1.32-2.74-2.95l0,0c0-1.63,1.23-2.95,2.74-2.95h11.59
						c1.52,0,2.74,1.32,2.74,2.95l0,0C300.17,671.34,298.95,672.66,297.43,672.66z"/>
					<path id="XMLID_95_" class="st16" d="M297.02,672.66h-10.77c-0.45,0-0.82-0.37-0.82-0.82v-4.26c0-0.45,0.37-0.82,0.82-0.82
						h10.77c0.45,0,0.82,0.37,0.82,0.82v4.26C297.84,672.3,297.47,672.66,297.02,672.66z"/>
				</g>
				<g id="XMLID_101_">
					<path id="XMLID_105_" class="st15" d="M165.82,672.66h-11.59c-1.52,0-2.74-1.32-2.74-2.95l0,0c0-1.63,1.23-2.95,2.74-2.95
						h11.59c1.52,0,2.74,1.32,2.74,2.95l0,0C168.57,671.34,167.34,672.66,165.82,672.66z"/>
					<path id="XMLID_102_" class="st16" d="M165.41,672.66h-10.77c-0.45,0-0.82-0.37-0.82-0.82v-4.26c0-0.45,0.37-0.82,0.82-0.82
						h10.77c0.45,0,0.82,0.37,0.82,0.82v4.26C166.23,672.3,165.86,672.66,165.41,672.66z"/>
				</g>
				<path id="XMLID_82_" class="st6" d="M693.2,838.76h8.5v-28.06h-8.5c-0.86,0-1.56,0.7-1.56,1.56v24.94
					C691.64,838.06,692.33,838.76,693.2,838.76z"/>
				<path id="XMLID_85_" class="st16" d="M695.34,836.63h6.36v-23.81h-6.36c-0.73,0-1.32,0.59-1.32,1.32v21.16
					C694.01,836.04,694.61,836.63,695.34,836.63z"/>
				<path id="XMLID_90_" class="st16" d="M694.01,824.73v7.83c0,2.25,1.7,4.08,3.8,4.08h3.89v-11.91H694.01z"/>
				<rect id="XMLID_91_" x="694.01" y="824.73" class="st16" width="7.69" height="3.93"/>
				<path id="XMLID_86_" class="st6" d="M566.08,880.91H308.96c-2.43,0-4.77-0.99-6.54-2.77l-5.01-5.03h273.15v2.99
					C570.56,878.75,568.56,880.91,566.08,880.91z"/>
			</g>
			<g id="XMLID_93_">
				<path id="XMLID_107_" class="st6" d="M271.94,779.56v1.92c0,2.37-1.06,3.66-3.23,3.66h-1.02v5.56h-2.16V775.9h3.19
					C270.88,775.9,271.94,777.19,271.94,779.56z M267.69,778.02v5.01h1.02c0.69,0,1.06-0.34,1.06-1.39v-2.22
					c0-1.06-0.37-1.4-1.06-1.4H267.69z"/>
				<path id="XMLID_111_" class="st6" d="M275.11,775.9v11.41c0,1.06,0.43,1.44,1.12,1.44c0.69,0,1.12-0.38,1.12-1.44V775.9h2.05
					v11.27c0,2.37-1.1,3.72-3.23,3.72c-2.12,0-3.23-1.35-3.23-3.72V775.9H275.11z"/>
				<path id="XMLID_113_" class="st6" d="M287.34,779.31v0.53c0,1.52-0.43,2.49-1.4,2.98c1.16,0.49,1.61,1.61,1.61,3.17v1.2
					c0,2.28-1.12,3.51-3.29,3.51h-3.4V775.9h3.27C286.38,775.9,287.34,777.02,287.34,779.31z M283.03,778.02v3.91h0.85
					c0.81,0,1.3-0.38,1.3-1.56v-0.82c0-1.06-0.33-1.52-1.1-1.52H283.03z M283.03,784.04v4.54h1.24c0.73,0,1.12-0.36,1.12-1.46v-1.29
					c0-1.37-0.41-1.8-1.4-1.8H283.03z"/>
				<path id="XMLID_132_" class="st6" d="M288.85,775.9h2.16v12.68h3.56v2.11h-5.73V775.9z"/>
				<path id="XMLID_134_" class="st6" d="M295.52,775.9h2.16v14.79h-2.16V775.9z"/>
				<path id="XMLID_136_" class="st6" d="M305.54,785.18v1.97c0,2.37-1.1,3.72-3.23,3.72c-2.12,0-3.23-1.35-3.23-3.72v-7.69
					c0-2.37,1.1-3.72,3.23-3.72c2.12,0,3.23,1.35,3.23,3.72v1.44h-2.05v-1.59c0-1.06-0.43-1.46-1.12-1.46
					c-0.69,0-1.12,0.4-1.12,1.46v7.99c0,1.06,0.43,1.44,1.12,1.44c0.69,0,1.12-0.38,1.12-1.44v-2.11H305.54z"/>
				<path id="XMLID_138_" class="st6" d="M312.81,775.74c2.11,0,3.19,1.35,3.19,3.72v0.46h-2.05v-0.61c0-1.06-0.39-1.46-1.08-1.46
					c-0.69,0-1.08,0.4-1.08,1.46c0,3.04,4.23,3.61,4.23,7.84c0,2.37-1.1,3.72-3.23,3.72c-2.13,0-3.23-1.35-3.23-3.72v-0.91h2.05
					v1.06c0,1.06,0.43,1.44,1.12,1.44c0.69,0,1.12-0.38,1.12-1.44c0-3.04-4.23-3.61-4.23-7.84
					C309.62,777.09,310.71,775.74,312.81,775.74z"/>
				<path id="XMLID_140_" class="st6" d="M323.53,785.18v1.97c0,2.37-1.1,3.72-3.23,3.72c-2.12,0-3.23-1.35-3.23-3.72v-7.69
					c0-2.37,1.1-3.72,3.23-3.72c2.12,0,3.23,1.35,3.23,3.72v1.44h-2.05v-1.59c0-1.06-0.43-1.46-1.12-1.46
					c-0.69,0-1.12,0.4-1.12,1.46v7.99c0,1.06,0.43,1.44,1.12,1.44c0.69,0,1.12-0.38,1.12-1.44v-2.11H323.53z"/>
				<path id="XMLID_142_" class="st6" d="M327.01,790.7h-2.16V775.9h2.16v6.34h2.46v-6.34h2.2v14.79h-2.2v-6.34h-2.46V790.7z"/>
				<path id="XMLID_144_" class="st6" d="M333.07,779.46c0-2.37,1.16-3.72,3.29-3.72c2.13,0,3.29,1.35,3.29,3.72v7.69
					c0,2.37-1.16,3.72-3.29,3.72c-2.12,0-3.29-1.35-3.29-3.72V779.46z M335.23,787.3c0,1.06,0.43,1.46,1.12,1.46
					c0.69,0,1.12-0.4,1.12-1.46v-7.99c0-1.06-0.43-1.46-1.12-1.46c-0.69,0-1.12,0.4-1.12,1.46V787.3z"/>
				<path id="XMLID_147_" class="st6" d="M340.86,779.46c0-2.37,1.16-3.72,3.29-3.72c2.13,0,3.29,1.35,3.29,3.72v7.69
					c0,2.37-1.16,3.72-3.29,3.72c-2.12,0-3.29-1.35-3.29-3.72V779.46z M343.02,787.3c0,1.06,0.43,1.46,1.12,1.46
					c0.69,0,1.12-0.4,1.12-1.46v-7.99c0-1.06-0.43-1.46-1.12-1.46c-0.69,0-1.12,0.4-1.12,1.46V787.3z"/>
				<path id="XMLID_150_" class="st6" d="M348.83,775.9h2.17v12.68h3.56v2.11h-5.73V775.9z"/>
				<path id="XMLID_152_" class="st6" d="M358.41,775.74c2.11,0,3.19,1.35,3.19,3.72v0.46h-2.05v-0.61c0-1.06-0.39-1.46-1.08-1.46
					c-0.69,0-1.08,0.4-1.08,1.46c0,3.04,4.23,3.61,4.23,7.84c0,2.37-1.1,3.72-3.23,3.72c-2.13,0-3.23-1.35-3.23-3.72v-0.91h2.05
					v1.06c0,1.06,0.43,1.44,1.12,1.44c0.69,0,1.12-0.38,1.12-1.44c0-3.04-4.23-3.61-4.23-7.84
					C355.22,777.09,356.3,775.74,358.41,775.74z"/>
			</g>
		</g>
		<path id="XMLID_154_" class="st1" d="M725.13,921.31H98.63c-1.45,0-2.64-1.28-2.64-2.84l0,0c0-1.56,1.19-2.84,2.64-2.84h626.5
			c1.45,0,2.64,1.28,2.64,2.84l0,0C727.78,920.04,726.59,921.31,725.13,921.31z"/>
	</g>
	<g id="XMLID_96_">
		<ellipse id="XMLID_3_" class="st3" cx="80.32" cy="760.3" rx="39.9" ry="121.87"/>
		<path id="XMLID_97_" class="st6" d="M80.32,921.31c-1.12,0-2.03-0.98-2.03-2.18V698.59c0-1.21,0.91-2.18,2.03-2.18
			s2.03,0.98,2.03,2.18v220.54C82.35,920.34,81.44,921.31,80.32,921.31z"/>
		<path id="XMLID_100_" class="st6" d="M80.32,749.31c-0.52,0-1.04-0.21-1.44-0.64c-0.79-0.85-0.79-2.23,0-3.08l16.23-17.43
			c0.79-0.85,2.08-0.85,2.87,0c0.79,0.85,0.79,2.23,0,3.09l-16.23,17.43C81.36,749.1,80.84,749.31,80.32,749.31z"/>
		<path id="XMLID_167_" class="st6" d="M80.32,811.05c-0.52,0-1.04-0.21-1.44-0.64c-0.79-0.85-0.79-2.23,0-3.08l16.23-17.43
			c0.79-0.85,2.08-0.85,2.87,0c0.79,0.85,0.79,2.23,0,3.09l-16.23,17.43C81.36,810.83,80.84,811.05,80.32,811.05z"/>
		<path id="XMLID_165_" class="st6" d="M80.32,863.43c-0.52,0-1.04-0.21-1.44-0.64c-0.79-0.85-0.79-2.23,0-3.09l16.23-17.43
			c0.79-0.85,2.08-0.85,2.87,0c0.79,0.85,0.79,2.23,0,3.08l-16.23,17.43C81.36,863.22,80.84,863.43,80.32,863.43z"/>
		<path id="XMLID_166_" class="st6" d="M80.32,770.51c-0.52,0-1.04-0.21-1.44-0.64l-16.23-17.43c-0.79-0.85-0.79-2.23,0-3.09
			c0.79-0.85,2.08-0.85,2.87,0l16.23,17.43c0.79,0.85,0.79,2.23,0,3.09C81.36,770.29,80.84,770.51,80.32,770.51z"/>
		<path id="XMLID_168_" class="st6" d="M80.32,728.49c-0.52,0-1.04-0.21-1.44-0.64l-16.23-17.43c-0.79-0.85-0.79-2.23,0-3.09
			c0.79-0.85,2.08-0.85,2.87,0l16.23,17.43c0.79,0.85,0.79,2.23,0,3.08C81.36,728.28,80.84,728.49,80.32,728.49z"/>
		<path id="XMLID_169_" class="st6" d="M80.32,838.42c-0.52,0-1.04-0.21-1.44-0.64l-16.23-17.43c-0.79-0.85-0.79-2.23,0-3.08
			c0.79-0.85,2.08-0.85,2.87,0l16.23,17.43c0.79,0.85,0.79,2.23,0,3.08C81.36,838.21,80.84,838.42,80.32,838.42z"/>
	</g>
	<g id="XMLID_187_">
		<ellipse id="XMLID_195_" class="st3" cx="771.65" cy="735.22" rx="46.11" ry="140.85"/>
		<path id="XMLID_194_" class="st6" d="M771.65,921.31c-1.3,0-2.35-1.13-2.35-2.52V663.9c0-1.39,1.05-2.52,2.35-2.52
			s2.35,1.13,2.35,2.52v254.9C773.99,920.19,772.94,921.31,771.65,921.31z"/>
		<path id="XMLID_193_" class="st6" d="M771.65,722.52c-0.6,0-1.2-0.25-1.66-0.74c-0.92-0.98-0.92-2.58,0-3.57l18.75-20.14
			c0.92-0.98,2.4-0.98,3.32,0c0.92,0.98,0.92,2.58,0,3.57l-18.75,20.14C772.85,722.27,772.25,722.52,771.65,722.52z"/>
		<path id="XMLID_192_" class="st6" d="M771.65,793.87c-0.6,0-1.2-0.25-1.66-0.74c-0.92-0.98-0.92-2.58,0-3.57l18.75-20.14
			c0.92-0.99,2.4-0.99,3.32,0c0.92,0.98,0.92,2.58,0,3.57l-18.75,20.14C772.85,793.63,772.25,793.87,771.65,793.87z"/>
		<path id="XMLID_191_" class="st6" d="M771.65,854.41c-0.6,0-1.2-0.25-1.66-0.74c-0.92-0.98-0.92-2.58,0-3.57l18.75-20.14
			c0.92-0.98,2.4-0.98,3.32,0c0.92,0.98,0.92,2.58,0,3.57l-18.75,20.14C772.85,854.17,772.25,854.41,771.65,854.41z"/>
		<path id="XMLID_190_" class="st6" d="M771.65,747.02c-0.6,0-1.2-0.25-1.66-0.74l-18.75-20.14c-0.92-0.98-0.92-2.58,0-3.57
			c0.92-0.99,2.4-0.99,3.32,0l18.75,20.14c0.92,0.98,0.92,2.58,0,3.57C772.85,746.77,772.25,747.02,771.65,747.02z"/>
		<path id="XMLID_189_" class="st6" d="M771.65,698.46c-0.6,0-1.2-0.25-1.66-0.74l-18.75-20.14c-0.92-0.98-0.92-2.58,0-3.57
			c0.92-0.98,2.4-0.98,3.32,0l18.75,20.14c0.92,0.98,0.92,2.58,0,3.57C772.85,698.21,772.25,698.46,771.65,698.46z"/>
		<path id="XMLID_188_" class="st6" d="M771.65,825.51c-0.6,0-1.2-0.25-1.66-0.74l-18.75-20.14c-0.92-0.98-0.92-2.58,0-3.57
			c0.92-0.98,2.4-0.98,3.32,0l18.75,20.14c0.92,0.98,0.92,2.58,0,3.57C772.85,825.26,772.25,825.51,771.65,825.51z"/>
	</g>
	<path id="XMLID_197_" class="st0" d="M249.12,503.6c-1.34-6.81-5.85-12.35-11.8-14.76c-1.11-10.07-9.07-17.88-18.74-17.88
		c-1.66,0-3.25,0.25-4.78,0.68c-1.95-8.97-9.42-15.65-18.37-15.65c-2.27,0-4.44,0.45-6.46,1.25c-2.33-13.29-13.17-23.36-26.22-23.36
		c-14.28,0-25.91,12.05-26.63,27.2c-0.02,0-0.05,0-0.07,0c-10.43,0-18.88,9.08-18.88,20.28c0,2.17,0.32,4.25,0.91,6.21
		c-0.3-0.02-0.6-0.05-0.91-0.05c-2.1,0-4.08,0.54-5.85,1.49c-1.04-10.15-9.04-18.04-18.76-18.04c-9.73,0-17.74,7.91-18.76,18.07
		c-2.21-0.97-4.62-1.51-7.15-1.51c-9.09,0-16.67,6.9-18.47,16.09H249.12z"/>
	<path id="XMLID_204_" class="st0" d="M482.22,135.09c-0.98-4.97-4.27-9.01-8.61-10.77c-0.81-7.34-6.62-13.04-13.67-13.04
		c-1.21,0-2.37,0.18-3.49,0.5c-1.42-6.54-6.88-11.42-13.4-11.42c-1.66,0-3.24,0.33-4.72,0.91c-1.7-9.7-9.61-17.04-19.13-17.04
		c-10.42,0-18.9,8.79-19.43,19.84c-0.02,0-0.03,0-0.05,0c-7.61,0-13.78,6.63-13.78,14.8c0,1.58,0.24,3.1,0.66,4.53
		c-0.22-0.02-0.44-0.04-0.66-0.04c-1.54,0-2.98,0.4-4.27,1.09c-0.76-7.4-6.59-13.16-13.69-13.16c-7.1,0-12.94,5.77-13.69,13.18
		c-1.61-0.71-3.37-1.11-5.22-1.11c-6.63,0-12.17,5.04-13.48,11.74H482.22z"/>
	<path id="XMLID_196_" class="st0" d="M718.28,357.48c-1.66-8.44-7.25-15.31-14.63-18.31c-1.37-12.48-11.24-22.17-23.24-22.17
		c-2.05,0-4.03,0.31-5.93,0.85c-2.42-11.12-11.69-19.41-22.78-19.41c-2.82,0-5.51,0.56-8.01,1.54
		c-2.89-16.48-16.34-28.96-32.52-28.96c-17.71,0-32.13,14.94-33.03,33.73c-0.03,0-0.06,0-0.09,0c-12.93,0-23.41,11.26-23.41,25.15
		c0,2.69,0.4,5.27,1.13,7.7c-0.37-0.03-0.75-0.06-1.13-0.06c-2.61,0-5.07,0.67-7.25,1.85c-1.29-12.58-11.21-22.37-23.26-22.37
		c-12.07,0-22,9.81-23.27,22.41c-2.74-1.2-5.73-1.88-8.87-1.88c-11.27,0-20.68,8.56-22.91,19.95H718.28z"/>
	<path id="XMLID_206_" class="st0" d="M-6.35,238.49h205.06c-1.66-8.44-7.25-15.31-14.63-18.31c-1.37-12.48-11.24-22.17-23.24-22.17
		c-2.05,0-4.03,0.31-5.93,0.85c-2.42-11.12-11.69-19.41-22.78-19.41c-2.82,0-5.51,0.56-8.01,1.54
		c-2.89-16.48-16.34-28.96-32.52-28.96c-17.71,0-32.13,14.94-33.03,33.73c-0.03,0-0.06,0-0.09,0c-12.93,0-23.41,11.26-23.41,25.15
		c0,2.69,0.4,5.27,1.13,7.7c-0.37-0.03-0.75-0.06-1.13-0.06c-2.61,0-5.07,0.67-7.25,1.85C26.53,207.8,16.61,198,4.55,198
		c-3.94,0-7.65,1.06-10.9,2.91V238.49z"/>
	<path class="st0" d="M-133,26.16"/>
</g>
</svg>
